<?xml version="1.0" standalone="no"?>
<!DOCTYPE svg PUBLIC "-//W3C//DTD SVG 20010904//EN"
 "http://www.w3.org/TR/2001/REC-SVG-20010904/DTD/svg10.dtd">
<svg version="1.0" xmlns="http://www.w3.org/2000/svg"
 width="1600.000000pt" height="1200.000000pt" viewBox="0 0 1600.000000 1200.000000"
 preserveAspectRatio="xMidYMid meet">

<g transform="translate(0.000000,1200.000000) scale(0.100000,-0.100000)"
fill="#000000" stroke="none">
<path d="M7740 9955 c-280 -90 -362 -136 -589 -333 -83 -72 -121 -110 -196
-197 -72 -82 -125 -151 -125 -161 0 -4 -7 -15 -15 -24 -17 -18 -57 -88 -80
-140 -9 -19 -23 -42 -32 -52 -9 -10 -17 -26 -18 -36 -2 -23 -45 -114 -60 -127
-6 -5 -37 -64 -68 -130 -50 -107 -73 -175 -82 -241 -2 -12 -10 -32 -18 -45
-18 -28 -67 -156 -66 -173 0 -6 4 -2 9 9 8 19 9 19 9 -2 1 -13 -3 -23 -8 -23
-10 0 -25 -35 -47 -115 -9 -33 -27 -82 -41 -110 -33 -66 -65 -232 -53 -273 10
-36 -6 -175 -21 -180 -5 -2 -7 -8 -4 -13 7 -10 -24 -81 -39 -91 -6 -4 -11 -38
-12 -75 0 -37 -4 -80 -8 -94 -5 -19 -3 -31 9 -43 29 -29 26 -215 -4 -245 -10
-10 -18 -30 -18 -43 0 -25 -33 -83 -72 -127 -22 -25 -20 -41 5 -41 8 0 17 13
20 29 4 17 14 31 25 34 23 6 22 9 4 -42 -8 -23 -12 -54 -9 -69 3 -15 -2 -45
-12 -67 l-17 -40 -13 30 c-7 17 -13 25 -14 18 0 -7 -9 -17 -21 -24 -17 -9 -24
-7 -41 11 -12 12 -18 30 -16 43 4 20 0 22 -40 22 -38 0 -46 -4 -54 -24 -5 -14
-6 -32 -2 -40 4 -9 6 -41 5 -71 -1 -30 2 -50 6 -44 4 6 24 15 43 19 19 4 39
13 43 19 6 7 7 4 3 -7 -3 -10 -6 -28 -6 -39 0 -18 -4 -19 -40 -13 -26 4 -40 3
-40 -4 0 -6 4 -11 9 -11 10 0 10 2 10 -176 0 -145 13 -199 77 -324 19 -36 34
-81 35 -100 1 -19 6 -48 12 -63 7 -20 7 -31 -2 -40 -19 -19 -13 -58 9 -64 15
-4 20 -14 20 -40 0 -19 5 -43 11 -55 9 -17 8 -19 -8 -14 -22 7 -48 -8 -39 -23
10 -16 37 -13 59 7 19 17 20 16 7 -7 -11 -22 -10 -27 9 -39 11 -8 21 -25 21
-37 0 -26 24 -50 40 -40 14 9 -7 -45 -27 -67 -15 -17 -10 -43 7 -33 15 10 21
-14 12 -48 -8 -28 -7 -33 8 -33 11 0 54 56 121 156 57 85 135 198 175 250 149
197 198 298 249 508 20 80 58 212 85 293 27 80 54 166 60 190 14 53 46 90 120
137 30 19 89 68 131 107 80 76 157 116 228 119 37 1 64 -26 75 -75 5 -24 1
-29 -49 -54 -30 -14 -55 -30 -55 -34 0 -8 -37 -34 -152 -107 l-49 -31 33 -7
c34 -7 253 -24 396 -31 103 -5 116 -9 130 -41 12 -26 17 -102 6 -91 -4 3 -16
2 -26 -4 -11 -6 -61 -10 -112 -10 -83 1 -303 -23 -314 -34 -9 -9 25 -13 138
-19 135 -6 260 -30 278 -53 6 -9 12 -30 12 -45 0 -24 -7 -32 -35 -44 -24 -10
-35 -21 -35 -35 0 -15 -16 -27 -67 -50 -38 -17 -90 -35 -116 -40 -26 -5 -80
-25 -119 -44 -40 -19 -80 -35 -89 -35 -19 0 -48 -10 -116 -41 -50 -24 -70 -65
-46 -99 31 -44 5 -135 -58 -205 -10 -11 -24 -32 -31 -46 -12 -24 -65 -91 -113
-143 -11 -12 -38 -35 -60 -51 -22 -16 -58 -46 -81 -66 -23 -20 -61 -46 -85
-57 -24 -12 -52 -27 -62 -36 -22 -17 -77 -148 -77 -182 0 -13 -4 -24 -8 -24
-5 0 -14 -30 -21 -67 -18 -96 -21 -103 -37 -103 -8 0 -14 -6 -14 -14 0 -7 -11
-39 -25 -70 -14 -31 -25 -67 -25 -80 0 -13 -7 -29 -15 -36 -8 -7 -15 -20 -15
-30 0 -24 -67 -90 -84 -84 -8 3 -16 -5 -20 -20 -3 -14 -20 -33 -36 -41 -17 -9
-28 -20 -25 -25 7 -11 -16 -50 -30 -50 -15 0 -45 -37 -45 -55 0 -8 -12 -27
-27 -43 -16 -16 -57 -61 -91 -100 -35 -40 -69 -72 -76 -72 -15 0 -66 -52 -66
-68 0 -7 -6 -12 -13 -12 -19 0 -117 -97 -117 -116 0 -20 -60 -94 -77 -94 -7 0
-13 -7 -13 -15 0 -8 -6 -15 -14 -15 -8 0 -18 -9 -21 -20 -3 -11 -15 -20 -26
-20 -10 0 -19 -5 -19 -11 0 -5 -4 -8 -8 -5 -4 2 -14 -9 -21 -25 -19 -43 -35
-31 -41 32 -3 30 -8 50 -11 44 -12 -19 -20 -75 -13 -87 4 -7 8 -54 9 -105 1
-91 0 -94 -29 -124 -32 -33 -52 -34 -151 -12 -41 10 -139 56 -165 78 -37 31
-56 27 -105 -21 l-47 -47 48 -18 c51 -20 62 -17 69 21 3 13 11 30 19 38 13 13
17 13 31 -2 9 -9 21 -16 26 -16 5 0 9 -6 9 -13 0 -18 32 -47 51 -47 8 0 20 -9
27 -20 7 -11 19 -20 27 -20 8 0 15 -3 15 -7 0 -10 119 -133 128 -133 4 0 31
-22 61 -49 l55 -48 -27 -27 c-15 -15 -32 -24 -37 -21 -16 10 -12 23 10 30 11
3 20 9 20 13 0 12 -88 43 -144 51 -30 4 -61 13 -69 20 -23 19 -26 3 -17 -99 4
-52 6 -97 4 -99 -2 -2 -4 2 -4 10 0 16 -46 69 -60 69 -6 0 -10 9 -10 20 0 13
7 20 19 20 20 0 35 23 23 35 -4 4 -7 23 -8 43 0 21 -6 48 -12 62 -6 14 -21 52
-34 85 -18 44 -30 61 -45 63 -25 4 -53 -31 -53 -65 0 -12 -6 -26 -14 -30 -8
-5 -19 -19 -25 -33 l-10 -25 -7 22 c-7 26 -22 24 -114 -13 -59 -24 -75 -23
-60 4 22 39 43 153 45 237 3 96 14 135 75 250 36 68 80 197 80 237 0 19 -9 32
-35 48 -46 28 -48 62 -4 81 52 21 89 58 89 87 0 15 4 43 10 62 21 77 70 435
64 470 -4 25 -1 48 11 70 20 39 33 275 17 330 -6 22 -11 29 -15 20 -2 -8 -13
-42 -23 -75 -11 -33 -24 -65 -30 -72 -6 -6 -16 -26 -23 -45 -7 -18 -17 -41
-22 -50 -5 -10 -9 -27 -9 -37 0 -11 -5 -23 -10 -26 -6 -4 -10 -18 -9 -33 1
-15 -4 -40 -11 -57 -6 -16 -21 -61 -31 -100 -11 -38 -23 -79 -28 -90 -15 -33
-32 -114 -47 -215 -13 -96 -34 -190 -48 -222 -5 -10 -6 -36 -4 -57 2 -22 0
-37 -4 -34 -9 5 -68 -114 -68 -136 0 -15 -12 -57 -35 -121 -30 -83 -54 -170
-65 -230 -7 -36 -18 -83 -24 -105 -18 -56 -42 -167 -56 -253 -11 -70 -14 -75
-54 -102 -22 -16 -59 -43 -82 -60 -47 -34 -78 -37 -150 -14 -27 8 -88 22 -136
29 -47 8 -113 23 -147 35 -33 11 -71 20 -83 20 -16 0 -19 3 -10 9 11 7 11 9
-2 14 -9 4 -16 2 -16 -3 0 -6 -9 -10 -20 -10 -12 0 -34 19 -55 47 l-36 48 5
120 c3 66 5 125 6 131 0 7 10 15 23 19 l22 8 -22 4 c-18 3 -23 11 -23 37 0 41
25 68 33 36 8 -32 48 -25 79 13 42 54 68 109 62 133 -3 12 -1 25 5 29 6 3 9
11 6 16 -4 5 1 9 9 9 9 0 16 8 16 19 0 20 16 36 35 36 17 0 17 35 1 41 -18 7
-22 39 -6 49 6 3 10 15 10 26 0 10 7 19 15 19 13 0 14 4 5 20 -9 17 -8 20 7
20 16 0 18 12 20 97 3 83 6 98 23 110 16 11 20 25 20 68 0 33 -5 56 -12 59 -7
3 -1 4 15 2 20 -2 27 1 27 13 0 9 8 30 18 46 10 17 24 52 31 79 6 26 18 55 26
63 8 8 18 26 21 41 3 15 11 38 17 50 10 20 8 26 -13 42 -20 15 -22 20 -11 34
7 9 10 16 7 16 -4 0 -2 9 4 20 6 11 17 17 24 14 22 -8 35 26 29 77 -4 31 0 56
11 77 9 18 13 32 9 32 -5 0 1 7 11 15 11 8 15 15 8 15 -6 0 -15 11 -18 26 -6
22 -10 24 -38 18 -56 -13 -71 -11 -68 11 1 11 4 30 5 42 1 13 5 23 10 23 4 0
7 14 7 30 0 18 6 33 15 36 8 4 15 14 15 23 0 9 7 29 15 45 8 15 15 36 15 45 1
9 6 29 13 44 l12 28 30 -33 c17 -18 26 -30 21 -25 -9 7 -46 -19 -46 -34 0 -8
29 -6 73 6 23 6 26 11 21 29 -6 18 -5 19 8 8 13 -10 15 -8 10 14 -5 26 -40 47
-71 42 -43 -7 -54 39 -22 94 10 18 31 70 46 116 15 45 32 82 36 82 12 0 11
-14 -1 -26 -8 -8 -6 -15 5 -24 8 -7 15 -18 15 -25 0 -7 13 -15 28 -17 27 -4
29 -2 30 35 1 27 -2 36 -11 32 -6 -4 -1 3 13 14 24 20 25 21 3 21 -12 0 -23
-6 -26 -12 -2 -7 -8 -9 -13 -5 -4 4 0 22 11 40 l18 32 -21 -19 c-24 -21 -29
-11 -9 16 10 12 23 15 50 11 32 -4 46 4 35 20 -6 8 25 36 33 32 8 -6 79 63 79
76 0 4 2 14 5 21 4 10 -9 18 -45 28 -52 14 -70 27 -54 39 5 3 18 26 29 50 11
24 35 58 53 76 l34 32 -66 17 c-68 17 -110 14 -124 -9 -4 -7 -28 -21 -53 -32
-43 -19 -47 -24 -55 -69 -8 -41 -13 -49 -37 -55 -33 -9 -57 -37 -50 -56 3 -7
-2 -16 -11 -19 -9 -3 -16 -17 -16 -29 0 -13 -4 -26 -9 -30 -6 -3 -13 -25 -16
-49 -8 -48 -12 -57 -39 -71 -20 -12 -44 -78 -48 -133 -1 -18 -6 -36 -10 -38
-4 -3 -6 -15 -3 -27 4 -15 -3 -31 -24 -53 -21 -22 -29 -41 -29 -63 1 -19 -7
-40 -20 -54 -12 -13 -22 -35 -22 -50 0 -14 -4 -29 -10 -32 -5 -3 -10 -19 -10
-35 0 -16 -5 -32 -10 -35 -6 -4 -24 -34 -41 -68 -17 -34 -40 -71 -50 -83 -11
-11 -22 -29 -24 -40 -2 -10 -9 -37 -15 -59 -7 -22 -15 -62 -20 -90 -5 -30 -22
-72 -44 -105 -36 -55 -45 -77 -26 -65 6 3 10 2 10 -4 0 -6 -9 -15 -20 -21 -12
-6 -19 -20 -18 -33 1 -12 -2 -41 -6 -64 -6 -31 -4 -43 4 -43 7 0 10 7 6 15 -3
8 -1 15 4 15 15 0 12 -18 -7 -48 -15 -23 -15 -25 -2 -14 17 12 49 7 49 -8 0
-5 -6 -15 -13 -22 -7 -7 -22 -28 -32 -45 -11 -18 -25 -33 -32 -33 -7 0 -13 -4
-13 -10 0 -5 5 -10 11 -10 8 0 8 -5 -1 -15 -7 -8 -16 -12 -21 -9 -14 9 -22
-23 -10 -44 12 -23 -7 -75 -25 -68 -10 4 -38 -106 -40 -159 0 -11 -3 -27 -6
-35 -4 -8 -9 -37 -13 -65 -4 -27 -13 -59 -20 -71 -7 -11 -17 -59 -21 -105 -4
-46 -11 -87 -16 -90 -7 -4 -6 -14 1 -27 8 -15 7 -31 -4 -62 -8 -24 -15 -62
-15 -86 0 -24 -5 -55 -12 -69 -9 -19 -8 -31 2 -49 7 -14 10 -32 6 -41 -3 -9
-1 -48 5 -86 16 -93 10 -100 -73 -83 -35 8 -76 14 -93 14 -16 0 -55 9 -85 20
-30 11 -89 22 -130 24 -109 5 -199 22 -221 42 -37 34 -56 145 -58 359 -2 140
22 275 69 380 5 11 12 31 16 45 4 13 16 37 27 52 11 15 24 52 28 82 4 31 14
63 23 71 8 9 20 35 26 58 11 41 49 128 77 177 37 64 55 116 62 183 5 40 20 99
35 132 15 33 29 84 33 115 8 80 8 82 23 115 7 17 12 34 11 39 -3 12 27 74 39
81 6 3 10 21 10 38 1 18 7 43 15 57 8 14 14 41 15 60 0 19 6 55 14 80 31 95
46 150 46 169 0 11 4 22 9 25 4 3 11 18 14 34 3 15 19 57 35 92 16 36 32 73
35 83 4 9 10 17 15 17 5 0 22 27 38 60 15 33 31 60 35 60 4 0 15 22 24 49 9
27 25 57 35 66 11 10 20 24 20 32 0 12 44 79 61 93 3 3 14 19 23 37 9 18 34
51 56 74 22 23 38 44 36 47 -3 2 -25 7 -49 9 -32 4 -52 0 -72 -13 -42 -27
-105 -86 -105 -97 0 -12 -101 -137 -111 -137 -5 0 -11 -16 -15 -36 -3 -19 -17
-47 -29 -62 -12 -15 -26 -38 -30 -52 -4 -14 -13 -32 -19 -40 -29 -35 -67 -112
-62 -125 2 -7 -2 -19 -10 -26 -8 -7 -14 -25 -12 -39 1 -15 -3 -35 -11 -43 -7
-9 -15 -36 -18 -59 -3 -24 -14 -53 -24 -66 -10 -13 -16 -29 -13 -37 3 -7 -2
-27 -11 -44 -9 -17 -21 -57 -26 -89 -6 -31 -16 -63 -21 -70 -6 -7 -14 -29 -19
-50 -17 -82 -28 -117 -38 -120 -6 -2 -11 -13 -11 -23 0 -11 -5 -30 -11 -42
-13 -23 -47 -147 -59 -217 -5 -25 -25 -84 -44 -132 -20 -48 -36 -100 -36 -116
0 -15 -4 -32 -8 -37 -5 -6 -14 -30 -21 -55 -7 -25 -22 -55 -33 -67 -11 -12
-17 -26 -14 -31 8 -14 -22 -83 -49 -112 -13 -14 -28 -43 -33 -65 -6 -22 -22
-71 -37 -110 -53 -135 -85 -230 -85 -251 0 -12 -7 -38 -15 -58 -12 -28 -16
-74 -15 -194 1 -224 2 -252 11 -252 4 0 11 -10 14 -22 4 -13 17 -33 28 -46 18
-19 18 -22 4 -22 -24 0 -84 67 -99 109 -7 22 -12 96 -12 191 -1 130 3 169 22
242 23 89 74 240 97 293 31 69 49 118 97 260 28 83 55 159 61 170 5 10 11 38
12 60 1 22 13 65 28 95 15 31 44 119 66 196 36 132 76 234 91 234 4 0 13 26
20 58 7 31 26 98 43 147 16 50 33 104 37 120 5 17 18 66 30 109 12 44 19 90
16 102 -4 14 0 29 11 39 18 17 65 101 103 185 12 25 25 52 30 60 29 47 60 114
57 124 -2 6 7 19 20 29 13 10 23 27 23 38 0 11 6 22 14 25 7 3 22 20 32 39 10
19 22 32 26 29 4 -3 8 0 8 6 0 7 14 30 31 51 21 27 26 39 16 39 -8 0 -18 -8
-21 -17 -4 -10 -10 -13 -16 -7 -5 5 -30 8 -55 6 -44 -4 -45 -5 -45 -38 0 -26
3 -32 15 -28 11 5 13 2 9 -10 -4 -11 -1 -16 11 -16 9 0 13 -5 10 -10 -4 -6
-10 -8 -15 -5 -5 3 -12 1 -15 -5 -4 -6 -15 -8 -26 -5 -11 4 -19 2 -19 -4 0 -6
6 -11 13 -11 9 0 9 -2 -1 -9 -8 -4 -12 -12 -10 -16 1 -5 -11 -12 -28 -17 -40
-10 -57 -43 -19 -36 34 7 32 -10 -2 -18 -48 -10 -53 -13 -62 -37 -5 -12 -20
-31 -34 -41 -14 -11 -31 -36 -38 -58 -6 -21 -16 -38 -21 -38 -4 0 -8 -6 -8
-13 0 -8 -9 -24 -20 -37 -27 -31 -35 -66 -22 -95 10 -21 7 -24 -20 -36 -29
-12 -30 -14 -24 -56 3 -27 2 -42 -4 -38 -12 7 -38 -53 -52 -120 -11 -53 -21
-82 -44 -128 -16 -33 -18 -67 -4 -67 6 0 8 -13 5 -32 -7 -38 -14 -50 -25 -43
-5 3 -11 -4 -15 -15 -4 -11 -10 -18 -14 -16 -4 3 -8 0 -9 -7 -1 -7 -4 -25 -8
-40 -4 -17 -1 -38 6 -52 26 -49 -15 -235 -74 -330 -20 -33 -39 -71 -43 -85 -3
-14 -11 -32 -18 -40 -7 -8 -18 -40 -25 -70 -7 -30 -21 -71 -31 -90 -11 -19
-19 -41 -19 -49 0 -13 -11 -38 -105 -236 -23 -49 -54 -115 -69 -146 -14 -31
-26 -63 -26 -71 0 -8 -12 -33 -27 -54 -14 -21 -30 -52 -34 -69 -4 -16 -14 -50
-22 -75 -29 -87 -40 -156 -29 -175 6 -12 6 -28 0 -46 -19 -55 3 -211 35 -246
11 -13 18 -25 15 -28 -9 -9 -129 13 -152 28 -12 8 -33 39 -48 69 -24 48 -26
64 -24 143 3 85 30 220 62 310 7 22 16 51 18 65 9 47 46 135 62 147 9 7 14 19
11 27 -3 8 4 34 17 58 12 24 31 68 42 98 10 30 27 61 37 68 10 8 17 23 16 35
-4 39 1 58 11 52 6 -3 10 4 10 18 0 13 9 35 21 48 30 35 59 94 59 123 0 28 17
73 37 97 8 9 16 29 19 44 2 15 13 45 23 68 11 23 22 65 25 92 5 57 8 69 24
108 7 16 12 36 12 46 0 10 9 39 20 64 12 26 23 76 27 113 4 44 12 72 24 83 9
9 20 39 25 66 4 28 20 88 37 135 16 47 31 99 34 115 2 17 13 48 23 70 24 54
51 145 45 155 -3 4 6 23 19 42 12 19 26 47 29 61 4 15 10 39 13 55 4 15 15 37
25 50 10 13 15 30 12 39 -3 9 1 19 9 24 9 5 29 37 46 72 17 34 40 71 51 81 12
11 21 25 21 32 0 17 66 95 96 114 13 8 24 17 24 21 0 3 -19 13 -42 22 -40 16
-42 16 -60 -3 -10 -11 -22 -20 -26 -20 -17 0 -102 -86 -102 -103 0 -9 -5 -17
-11 -17 -5 0 -16 -15 -24 -33 -7 -18 -24 -38 -37 -45 -29 -16 -68 -82 -68
-116 0 -14 -5 -28 -11 -31 -18 -12 -24 5 -10 28 12 20 12 20 -2 7 -20 -19 -53
-110 -108 -296 -5 -17 -9 -54 -9 -82 0 -108 -81 -514 -121 -607 -29 -67 -72
-226 -70 -263 1 -31 -7 -61 -27 -100 -16 -31 -40 -82 -53 -112 -12 -30 -29
-62 -36 -71 -7 -8 -16 -31 -19 -50 -8 -41 -19 -63 -53 -108 -14 -18 -26 -41
-26 -50 -1 -9 -2 -25 -3 -37 -1 -12 -13 -38 -27 -58 -14 -21 -23 -41 -20 -45
2 -4 -7 -23 -21 -42 -30 -40 -64 -107 -64 -126 0 -7 -13 -39 -30 -70 -16 -31
-30 -61 -30 -68 0 -7 -9 -32 -20 -56 -11 -24 -20 -61 -20 -81 0 -20 -4 -39 -9
-42 -5 -3 -12 -23 -16 -43 -3 -21 -18 -56 -33 -78 -28 -41 -27 -39 -35 -240
l-2 -59 -59 -18 c-32 -10 -77 -19 -99 -20 -41 -3 -42 -3 -49 37 -4 22 -10 54
-13 70 -8 38 21 79 70 96 22 8 35 20 35 31 0 22 -3 22 -42 2 -20 -10 -34 -12
-40 -6 -7 7 6 18 41 32 55 24 52 18 82 150 13 57 36 121 48 130 17 13 101 133
101 145 0 7 15 31 34 54 18 22 37 57 41 77 3 20 12 46 20 58 7 12 15 36 19 54
3 18 23 63 45 100 22 37 43 79 46 95 4 15 11 30 16 33 9 5 49 87 49 101 0 13
-27 -30 -35 -56 -8 -25 -45 -72 -45 -57 0 20 -28 -17 -34 -44 -6 -31 -26 -42
-26 -15 0 8 -4 15 -10 15 -5 0 -10 -4 -10 -10 0 -5 -9 -10 -20 -10 -11 0 -20
-6 -20 -13 0 -15 -47 -63 -82 -83 -64 -37 -69 -38 -78 -25 -6 11 -11 9 -19 -8
-7 -12 -9 -26 -6 -31 3 -5 0 -8 -7 -5 -7 3 -31 -11 -53 -30 -31 -27 -37 -37
-26 -44 11 -7 10 -13 -5 -35 -11 -14 -25 -26 -31 -26 -7 0 -13 -7 -13 -15 0
-16 -16 -20 -63 -16 -21 2 -30 -3 -34 -18 -3 -12 -10 -21 -15 -21 -5 0 -8 -22
-7 -48 3 -53 -6 -76 -26 -68 -19 7 -52 -20 -59 -49 -6 -23 -29 -34 -39 -17 -4
8 0 -9 9 -35 4 -13 3 -14 -3 -5 -7 9 -25 -4 -69 -50 -32 -35 -75 -75 -94 -90
-19 -15 -53 -43 -75 -63 -22 -20 -62 -51 -90 -69 -27 -19 -59 -43 -69 -55 -11
-12 -23 -21 -29 -21 -12 0 -149 -89 -217 -142 -30 -24 -59 -46 -65 -50 -5 -4
-22 -18 -37 -30 -66 -57 -248 -179 -318 -214 -30 -15 -56 -31 -58 -36 -2 -4
-9 -8 -16 -8 -6 0 -57 -25 -111 -55 -55 -30 -106 -55 -114 -55 -8 0 -22 -6
-30 -13 -9 -7 -47 -24 -84 -36 -60 -21 -72 -22 -111 -11 -26 7 -58 9 -77 5
-41 -9 -99 -36 -99 -46 0 -4 -9 -5 -20 -2 -12 3 -29 -2 -41 -13 -19 -17 -19
-19 -2 -25 17 -7 17 -8 1 -8 -16 -1 -18 -16 -18 -170 l0 -170 50 22 c27 12 50
27 50 33 0 18 35 44 60 44 12 0 33 11 45 24 50 54 195 62 195 11 0 -8 6 -12
13 -9 19 7 69 -70 60 -93 -3 -10 -15 -26 -27 -35 -11 -9 -18 -20 -14 -23 4 -4
19 2 34 14 15 11 31 21 36 21 5 0 34 16 64 35 30 19 57 35 59 35 3 0 33 19 68
43 34 24 105 70 157 102 52 33 118 76 145 96 28 19 97 69 155 109 58 41 137
99 175 130 39 30 81 60 95 67 120 53 163 79 211 126 30 29 101 88 159 132 58
43 123 94 144 112 44 37 69 44 40 12 -19 -21 -19 -21 11 -45 17 -13 30 -29 30
-36 0 -21 67 -31 160 -22 50 5 142 8 205 8 112 0 117 -1 220 -43 l105 -44 95
8 c216 19 315 8 428 -45 66 -31 127 -42 287 -55 44 -4 116 -15 160 -25 44 -10
127 -21 185 -24 170 -9 513 -57 532 -75 4 -3 -11 -26 -33 -51 -58 -65 -96
-122 -133 -198 -55 -113 -69 -181 -69 -327 1 -154 25 -248 103 -412 26 -56 56
-128 65 -159 14 -48 29 -71 88 -132 40 -41 83 -85 95 -99 13 -13 41 -31 63
-40 36 -14 39 -18 39 -52 0 -43 26 -128 46 -152 8 -8 14 -20 14 -26 0 -6 11
-18 25 -27 14 -9 25 -22 25 -29 0 -6 17 -31 39 -53 21 -23 41 -49 44 -57 3 -9
22 -27 41 -39 20 -13 36 -28 36 -34 0 -7 17 -24 38 -40 52 -40 70 -55 106 -88
17 -15 42 -36 57 -45 14 -9 42 -35 63 -58 21 -24 43 -43 49 -43 5 0 43 -31 83
-70 41 -38 80 -70 88 -70 8 0 16 15 20 37 15 97 105 330 131 339 13 6 87 -9
163 -33 62 -19 61 -12 14 -138 -29 -77 -72 -239 -72 -273 0 -35 18 7 39 93 30
119 82 263 98 269 18 7 17 -37 -1 -72 -49 -96 -96 -350 -96 -521 -1 -147 -17
-110 -26 58 -7 128 -16 171 -22 108 -2 -18 -4 -117 -6 -222 -2 -217 -7 -235
-62 -235 -19 0 -45 7 -58 15 -26 17 -71 12 -79 -9 -3 -6 2 -28 10 -49 16 -40
43 -48 85 -26 25 14 69 4 62 -14 -3 -8 5 -19 18 -25 23 -11 23 -11 -4 -11 -23
-1 -28 -6 -28 -26 0 -15 7 -39 15 -55 12 -23 12 -35 3 -62 -6 -18 -18 -37 -27
-43 -12 -7 3 -12 59 -17 41 -4 94 -10 116 -13 26 -4 44 -3 48 4 4 6 17 11 30
11 26 0 74 48 160 160 93 121 224 267 295 328 36 31 68 59 71 62 3 3 22 14 43
25 20 11 37 22 37 26 0 4 8 9 18 12 9 3 42 14 72 25 30 11 93 26 139 32 74 10
94 9 185 -10 84 -18 124 -21 236 -17 172 6 374 29 468 52 65 16 84 17 155 6
120 -18 148 -27 190 -62 37 -30 39 -34 32 -75 -4 -29 -3 -44 5 -44 6 0 13 7
16 15 5 12 15 7 48 -22 45 -40 56 -60 61 -113 6 -58 16 -90 31 -90 26 0 26
-62 -1 -147 -14 -46 -30 -83 -35 -83 -6 0 -10 5 -10 11 0 7 -13 -2 -29 -19
-17 -17 -39 -36 -51 -42 -25 -13 -43 -56 -36 -85 5 -20 12 -22 131 -23 69 -1
125 0 125 2 0 2 -6 21 -14 42 -7 22 -17 67 -21 102 -4 34 -11 64 -15 67 -5 3
-8 39 -9 79 0 55 3 79 15 90 19 19 36 20 53 3 29 -27 0 44 -44 109 -25 36 -46
76 -47 90 -3 53 -3 59 7 59 6 0 20 10 32 22 12 12 39 25 60 28 41 6 61 10 135
26 48 10 289 -2 398 -20 98 -17 194 -30 239 -33 l43 -2 3 37 c1 30 11 45 46
77 24 22 49 40 56 40 6 0 26 12 43 26 17 15 48 33 68 40 l37 12 -50 22 c-27
12 -57 29 -66 38 -10 9 -42 41 -73 71 l-56 55 0 -42 c0 -40 -1 -41 -37 -47
-74 -12 -83 -12 -83 -5 0 4 -11 5 -25 2 -17 -3 -27 1 -31 12 -7 18 28 179 57
261 9 28 20 62 23 76 3 14 15 46 26 72 19 42 23 45 43 36 25 -11 81 -98 92
-142 4 -15 11 -30 16 -33 5 -3 9 -21 9 -41 0 -39 6 -61 54 -192 33 -90 38 -94
123 -110 24 -5 49 -14 57 -20 8 -7 16 -8 19 -4 3 5 -15 31 -39 58 -69 78 -69
101 -3 111 32 5 39 2 82 -45 57 -63 113 -141 109 -152 -1 -5 12 -9 29 -9 l31
0 -66 70 c-36 39 -66 79 -66 89 0 12 13 26 31 35 32 16 32 16 73 -27 23 -23
69 -73 103 -111 54 -62 64 -69 83 -60 l22 10 -27 24 c-135 122 -156 162 -89
175 20 3 39 4 43 0 68 -61 158 -161 150 -166 -8 -5 -8 -9 0 -13 6 -4 9 -12 6
-17 -3 -5 2 -6 12 -3 16 5 16 4 -1 -10 -11 -9 -14 -16 -8 -16 7 0 12 -4 12
-10 0 -5 -6 -10 -14 -10 -7 0 -16 -9 -19 -19 -3 -13 -1 -18 9 -14 16 6 31 -64
17 -78 -5 -5 -26 -12 -45 -15 l-35 -6 -12 61 c-7 34 -14 61 -17 61 -3 0 -19
-7 -35 -16 -29 -14 -30 -18 -24 -57 5 -27 17 -50 33 -65 26 -23 29 -23 182
-17 85 4 187 9 225 12 129 9 348 7 535 -6 226 -16 244 -16 299 4 45 15 168 20
187 7 23 -15 22 -40 -2 -63 -13 -12 -24 -25 -24 -29 0 -10 44 -4 80 12 53 24
91 36 135 43 57 10 71 20 97 71 12 25 33 57 45 70 24 26 28 44 15 60 -5 5 -14
32 -21 60 -10 43 -10 58 3 95 18 52 20 62 6 54 -6 -3 -13 1 -16 9 -3 9 -10 14
-14 11 -10 -6 -22 24 -14 37 4 6 2 13 -3 17 -5 3 -29 39 -52 79 -47 81 -150
197 -151 170 0 -9 23 -47 50 -83 50 -66 59 -88 40 -100 -5 -3 -10 2 -10 12 0
30 -37 81 -79 109 -22 14 -43 35 -46 45 -4 11 -11 19 -17 19 -6 0 -52 25 -103
55 -50 30 -96 55 -101 55 -5 0 -21 6 -36 14 -14 8 -43 19 -65 26 -21 7 -42 16
-48 20 -5 4 -39 12 -75 19 -36 7 -112 23 -170 36 -58 14 -145 28 -194 32 -88
8 -89 8 -71 27 34 34 138 19 505 -70 87 -22 272 -111 338 -163 30 -24 57 -40
60 -36 6 6 -9 21 -64 64 -77 61 -234 130 -364 160 -52 12 -131 32 -175 43 -44
11 -103 24 -131 28 -29 5 -62 11 -74 15 l-22 7 24 12 c12 6 87 36 166 65 170
63 183 63 369 2 152 -49 271 -112 383 -201 15 -12 33 -18 46 -14 20 5 22 13
23 92 1 47 4 88 6 90 2 3 -1 14 -7 26 -6 11 -13 43 -15 70 -1 27 -10 57 -18
66 -8 9 -15 22 -15 28 0 7 -4 12 -9 12 -5 0 -12 16 -15 36 -6 29 -10 33 -22
24 -31 -26 -10 13 77 145 202 304 272 550 225 784 -9 46 -15 85 -13 87 2 2 22
-2 45 -10 96 -34 301 -63 537 -76 181 -10 290 -25 735 -101 96 -16 280 -43
408 -59 129 -17 302 -44 385 -60 269 -54 399 -71 542 -69 l133 2 -39 37 c-38
36 -50 60 -29 60 6 0 10 7 10 15 0 8 7 15 15 15 8 0 15 5 15 11 0 6 -7 8 -16
5 -9 -3 -18 -6 -20 -6 -2 0 -4 -5 -4 -10 0 -19 -34 -48 -80 -69 -35 -16 -66
-21 -140 -21 -140 0 -353 34 -466 74 -22 8 -52 12 -66 9 -29 -5 -108 14 -108
26 0 13 -38 21 -42 9 -3 -7 -28 -6 -75 1 -40 6 -90 11 -111 11 -22 0 -56 7
-75 15 -20 8 -50 15 -68 15 -17 0 -68 11 -113 24 -44 13 -111 27 -148 30 -91
9 -122 21 -154 63 l-27 36 29 23 c16 12 34 28 39 34 6 6 25 26 43 43 38 37 41
50 10 38 -29 -11 -210 2 -313 23 -155 31 -275 85 -275 123 0 24 30 26 78 5
113 -50 274 -101 350 -110 116 -14 201 5 221 49 17 39 25 99 13 99 -5 0 -17
-9 -27 -20 -18 -20 -27 -20 -149 -15 -175 8 -226 24 -226 71 0 22 4 24 49 24
43 0 51 -3 57 -22 l8 -23 6 25 c7 31 32 38 142 39 85 1 87 1 113 -31 l27 -32
-3 47 c-2 25 0 49 3 53 4 3 53 -8 110 -25 57 -17 130 -36 163 -41 63 -11 351
-23 325 -14 -8 3 -22 8 -30 11 -16 6 -28 7 -145 19 -38 4 -82 13 -97 21 -15 7
-40 12 -55 11 -16 -1 -42 6 -58 14 -17 9 -52 19 -78 22 -26 3 -68 9 -93 12
l-46 6 4 41 c3 23 8 49 12 59 6 12 1 18 -24 23 -17 4 -37 16 -45 28 -18 29
-56 127 -49 127 3 0 24 -20 46 -45 22 -24 56 -54 77 -66 44 -27 108 -66 141
-89 14 -10 55 -27 90 -40 36 -12 80 -29 98 -37 52 -23 49 -8 -5 23 -26 15 -68
40 -93 55 -25 16 -70 42 -100 58 -30 16 -89 53 -130 82 -41 30 -93 63 -115 74
-22 11 -41 29 -43 39 -2 11 -8 24 -13 30 -5 6 -20 25 -34 43 -17 21 -32 30
-43 27 -13 -5 -14 -4 -3 4 11 8 10 14 -5 38 -10 16 -26 37 -36 47 -28 28 -22
1 16 -78 19 -39 30 -71 25 -73 -13 -5 -98 58 -104 77 -2 9 -6 31 -7 49 -1 17
-6 32 -11 32 -5 0 -7 -7 -3 -15 3 -8 1 -15 -4 -15 -6 0 -10 5 -10 12 0 18 -10
3 -15 -23 -9 -45 -85 -72 -85 -30 0 13 -8 21 -22 23 -28 4 -26 35 3 58 13 11
21 33 25 80 5 45 3 62 -4 55 -6 -5 -12 -21 -15 -35 -4 -24 -4 -24 -6 3 0 15
-6 27 -12 27 -5 0 -8 -4 -5 -9 5 -8 -9 -118 -20 -153 -5 -18 -34 -26 -34 -9 0
5 -14 14 -31 22 l-32 13 6 120 c4 86 3 114 -4 96 -5 -13 -11 -56 -12 -95 -2
-54 -5 -70 -17 -70 -8 0 -16 9 -17 20 -3 19 -3 19 5 1 8 -19 9 -18 15 5 10 36
8 61 -3 54 -6 -4 -10 6 -11 22 l-1 28 -9 -30 c-4 -16 -10 -46 -12 -66 -4 -46
-30 -86 -65 -102 -15 -6 -33 -17 -40 -24 -8 -7 -17 -11 -22 -8 -10 6 7 84 22
102 7 9 7 13 -1 13 -6 0 -11 9 -11 20 0 11 -1 20 -3 20 -1 0 -17 4 -35 9 -28
8 -32 7 -30 -7 4 -24 -26 -26 -76 -4 -31 14 -46 27 -49 44 -4 20 -4 20 -6 2 0
-13 -14 -26 -36 -37 -24 -12 -35 -23 -35 -38 0 -12 -24 -66 -54 -119 -61 -109
-80 -158 -95 -250 -17 -95 -40 -152 -60 -148 -31 6 -35 255 -4 265 7 3 9 -3 6
-16 -3 -12 -1 -21 6 -21 6 0 11 17 11 38 0 21 5 64 11 95 10 47 21 66 65 114
30 32 54 59 54 60 0 1 -19 3 -42 5 -42 3 -43 4 -41 38 1 19 0 29 -4 21 -8 -20
-33 42 -27 71 4 22 4 22 -6 -1 -8 -19 -7 -34 5 -63 12 -32 13 -38 1 -38 -8 0
-17 -6 -19 -12 -3 -7 -4 24 -4 69 2 102 -11 96 -15 -7 l-3 -74 -53 -16 c-35
-9 -66 -27 -88 -50 l-34 -34 3 -203 c2 -112 0 -203 -3 -203 -14 0 -60 137 -75
221 -8 43 9 113 38 153 l20 29 -47 -5 c-26 -3 -75 -19 -109 -36 -77 -38 -98
-73 -95 -151 3 -53 2 -54 -29 -63 -17 -4 -41 -21 -53 -36 -19 -23 -21 -35 -16
-78 8 -69 -4 -79 -72 -57 -59 19 -63 31 -26 80 24 32 25 35 10 58 -9 14 -21
25 -26 25 -10 0 -38 -35 -62 -80 -15 -26 -22 -30 -40 -25 -40 12 -41 22 -10
90 30 63 33 95 8 95 -7 0 -22 -19 -34 -42 -12 -24 -22 -37 -22 -30 0 23 -20 2
-20 -21 0 -12 -4 -29 -10 -37 -17 -28 -23 0 -11 55 10 45 15 54 26 45 11 -9
12 -7 8 8 -2 11 2 33 11 50 20 39 20 52 0 52 -23 0 -53 -40 -54 -71 0 -14 -7
-34 -16 -45 -14 -18 -15 -16 -9 21 4 22 11 46 17 52 6 7 7 20 4 29 -3 8 1 25
9 37 18 25 20 41 4 31 -18 -11 -49 -88 -43 -110 5 -23 -15 -56 -23 -36 -5 14
-33 17 -33 3 0 -15 -30 -21 -51 -11 -14 8 -19 7 -19 -2 0 -7 -5 -5 -11 6 -9
15 -13 16 -20 5 -6 -9 -9 4 -9 36 0 57 -28 97 -86 121 -18 8 -35 18 -39 24 -9
15 -58 12 -91 -4 -34 -18 -48 -12 -33 15 6 12 8 23 5 26 -3 3 -16 -19 -30 -49
l-25 -55 -123 3 -123 2 -27 -31 c-21 -24 -28 -28 -28 -14 0 9 -1 17 -2 17 -2
1 -39 7 -83 15 -44 8 -96 14 -115 14 l-35 -1 40 -10 c109 -26 165 -50 185 -78
11 -15 20 -35 20 -42 0 -8 9 -23 20 -33 11 -10 20 -25 20 -33 0 -21 -68 -80
-109 -93 -35 -12 -80 -37 -91 -50 -3 -3 -22 -12 -42 -18 -21 -7 -38 -17 -38
-22 0 -6 -24 -21 -53 -33 -29 -13 -59 -31 -67 -41 -7 -9 -32 -26 -54 -37 -23
-12 -66 -43 -97 -69 -30 -27 -64 -49 -75 -49 -10 0 -33 -13 -49 -29 -39 -36
-110 -81 -129 -81 -7 0 -19 -7 -26 -15 -7 -8 -21 -15 -31 -15 -11 0 -19 -3
-19 -8 0 -8 -91 -52 -109 -52 -6 0 -11 -3 -11 -7 0 -9 -48 -33 -63 -33 -17 0
-97 -43 -97 -52 0 -4 -6 -8 -14 -8 -8 0 -16 -6 -19 -14 -3 -8 -22 -22 -41 -31
-20 -10 -36 -21 -36 -26 0 -5 -6 -9 -13 -9 -19 0 -108 -60 -130 -87 -10 -13
-24 -23 -32 -23 -7 0 -18 -7 -25 -15 -7 -8 -23 -15 -36 -15 -12 0 -26 -4 -29
-10 -3 -5 -17 -10 -31 -10 -37 0 -74 -28 -74 -57 0 -27 -24 -53 -91 -99 -39
-27 -47 -39 -57 -80 -26 -118 -36 -150 -49 -171 -8 -12 -26 -64 -39 -114 -16
-63 -32 -99 -49 -117 -14 -13 -25 -29 -25 -34 0 -5 -4 -7 -8 -4 -5 3 -14 -12
-21 -32 -48 -142 -88 -212 -120 -212 -8 0 -32 -12 -54 -27 -35 -24 -38 -30
-34 -63 2 -21 7 -43 12 -49 24 -40 4 -109 -48 -168 -10 -12 -21 -37 -22 -55
-2 -18 -3 -39 -4 -45 -1 -7 -10 -13 -20 -13 -11 0 -34 -12 -51 -27 -40 -34
-50 -21 -38 52 19 123 96 305 129 305 5 0 9 7 9 16 0 9 8 23 18 31 9 8 12 12
6 9 -6 -3 -16 12 -23 34 -10 33 -16 40 -36 40 -14 0 -25 -4 -25 -9 0 -5 -12
-11 -27 -13 -33 -4 -69 -49 -58 -75 24 -55 -52 -250 -116 -297 -21 -17 -39
-38 -39 -47 0 -10 -3 -25 -7 -35 -4 -12 -3 -15 5 -10 7 4 12 3 12 -2 0 -5 -24
-18 -52 -28 -50 -18 -54 -22 -65 -64 -6 -25 -12 -47 -13 -50 -1 -3 -3 -12 -4
-20 0 -8 -9 -16 -18 -18 -13 -3 -18 3 -18 22 0 14 5 28 10 31 6 4 10 21 9 38
-3 37 5 78 31 162 23 75 92 250 121 305 13 25 24 67 26 101 5 70 0 72 -82 33
-42 -20 -57 -33 -61 -53 -3 -14 -7 -32 -10 -39 -2 -6 1 -12 7 -12 7 0 10 -17
7 -45 -2 -25 0 -45 4 -45 5 0 8 -4 8 -10 0 -5 -7 -10 -15 -10 -8 0 -15 -7 -15
-16 0 -9 -9 -29 -20 -44 -11 -16 -23 -43 -27 -61 -3 -18 -12 -44 -19 -58 -7
-13 -11 -28 -8 -33 3 -4 -1 -6 -8 -3 -8 3 -27 -18 -47 -50 -18 -30 -41 -56
-50 -56 -9 -1 -39 -2 -68 -3 -28 -1 -54 -4 -57 -7 -3 -3 -7 -36 -9 -73 -4 -60
-8 -71 -35 -98 -33 -34 -52 -30 -52 9 0 34 69 217 123 328 99 200 148 361 117
380 -12 8 -39 -21 -40 -43 0 -8 -9 -25 -20 -39 -11 -14 -20 -34 -20 -44 0 -10
-8 -24 -18 -31 -10 -7 -27 -28 -37 -46 -11 -17 -27 -34 -37 -37 -9 -3 -31 -22
-48 -41 -20 -24 -37 -34 -49 -31 -33 8 -50 -10 -44 -48 3 -20 1 -41 -6 -48 -6
-8 -8 -17 -4 -20 3 -4 1 -7 -5 -7 -7 0 -12 -4 -12 -10 0 -16 -54 -65 -85 -76
-23 -8 -32 -20 -40 -51 -5 -23 -18 -50 -28 -61 -12 -14 -16 -28 -11 -46 5 -22
1 -29 -25 -43 -17 -10 -31 -21 -31 -25 0 -5 -11 -8 -25 -8 -23 0 -25 4 -25 44
0 58 26 136 66 200 18 28 60 103 92 166 85 165 127 234 197 326 44 57 223 403
241 466 17 54 12 77 -7 35 -11 -25 -54 -51 -69 -42 -4 2 -19 -4 -33 -15 -14
-11 -29 -20 -34 -20 -4 0 -31 -15 -58 -34 -66 -44 -193 -72 -297 -67 -50 3 13
65 92 92 19 7 61 38 92 69 33 33 97 79 152 110 52 30 109 68 128 84 18 17 49
38 68 47 51 24 226 76 311 94 129 27 212 79 394 249 86 80 270 198 459 294 61
31 113 59 116 62 3 4 21 15 40 25 31 16 126 78 350 229 86 59 181 128 226 165
17 14 44 36 60 48 16 12 52 41 81 63 29 23 67 46 85 52 18 6 101 14 183 18
l150 7 -170 -1 c-163 -1 -173 -2 -229 -29 -69 -32 -66 -31 -66 -12 0 9 -7 18
-15 21 -22 9 5 54 61 101 25 21 70 59 99 85 30 26 73 53 96 59 31 10 44 20 51
40 6 18 21 32 41 39 63 20 209 98 198 104 -6 4 -38 -7 -71 -23 -78 -40 -90
-40 -22 0 30 17 51 33 48 36 -6 6 -73 -12 -166 -44 -25 -8 -64 -18 -87 -20
-61 -7 -57 17 7 40 27 10 69 33 93 51 25 19 54 39 66 45 12 7 19 16 16 20 -7
13 21 33 42 31 42 -5 56 -1 44 14 -6 7 -9 20 -6 28 7 18 -11 28 -80 42 -43 10
-51 15 -58 41 -5 17 -13 43 -18 59 -7 24 -5 32 13 48 27 23 49 23 130 -4 37
-12 70 -19 74 -16 11 12 -17 48 -38 48 -38 0 -89 23 -86 39 2 8 27 31 56 52
64 44 97 91 83 118 -8 14 -30 20 -108 28 -108 11 -168 33 -170 62 -2 21 16 27
87 30 45 2 65 10 42 18 -6 3 -10 9 -7 13 3 5 0 18 -7 29 -14 23 -1 76 19 76 6
0 14 3 17 6 8 8 10 101 2 127 -6 18 -2 25 23 40 17 9 31 22 31 29 0 7 16 24
35 39 19 14 35 32 35 39 0 7 6 16 13 18 6 3 -26 6 -73 7 -47 1 -94 5 -105 9
-18 7 -16 10 15 26 19 10 37 19 38 20 13 11 18 86 11 175 -9 129 -1 146 84
200 75 48 87 58 87 71 0 13 -26 5 -105 -32 -78 -36 -86 -17 -20 49 43 42 125
184 161 277 6 17 16 42 22 58 22 52 3 26 -38 -55 -23 -46 -49 -90 -56 -99 -8
-8 -14 -20 -14 -26 0 -6 -4 -13 -8 -15 -5 -1 -24 -25 -42 -53 -19 -27 -46 -60
-61 -73 -18 -15 -34 -45 -47 -90 -58 -196 -83 -298 -98 -397 -19 -133 -37
-203 -62 -253 -11 -20 -25 -50 -31 -66 -10 -24 -14 -27 -22 -15 -8 10 -9 5 -6
-19 2 -18 0 -35 -5 -38 -4 -3 -8 -1 -8 4 0 4 -20 9 -45 11 -41 2 -45 0 -45
-21 0 -34 -11 -44 -52 -52 -26 -5 -38 -12 -39 -24 -1 -9 -2 -24 -3 -32 0 -8
-11 -16 -23 -18 -13 -2 -23 -7 -23 -11 0 -5 -18 -8 -41 -8 -37 0 -40 2 -35 23
3 12 2 26 -4 29 -15 10 -12 21 15 53 14 17 25 37 25 46 0 17 -55 -40 -76 -79
-6 -11 -23 -21 -38 -23 -31 -4 -32 -11 -6 -54 19 -32 21 -33 81 -30 60 4 79
-4 79 -33 0 -5 -5 -3 -10 5 -5 8 -10 10 -10 4 0 -6 7 -17 15 -24 16 -13 21
-70 7 -70 -5 0 -16 18 -26 41 -23 51 -51 50 -52 -1 -1 -56 -3 -60 -23 -60 -11
0 -23 -4 -26 -10 -3 -5 -21 -10 -38 -10 -24 0 -28 3 -17 10 8 5 11 10 6 10 -5
0 1 11 14 25 19 20 20 25 7 25 -8 0 -29 -16 -45 -36 -25 -30 -34 -35 -53 -29
-13 4 -27 13 -31 19 -5 8 -11 7 -20 -2 -17 -17 -2 -29 60 -45 49 -12 52 -14
35 -29 -17 -15 -38 -26 -115 -64 -20 -10 -35 -21 -32 -26 3 -4 -2 -5 -10 -2
-10 4 -16 18 -16 37 0 36 -11 28 -30 -23 -17 -43 -43 -63 -86 -66 -18 -1 -41
-9 -49 -18 -9 -9 -31 -16 -48 -16 -31 0 -89 -32 -128 -71 -19 -19 -136 -59
-175 -59 -13 0 -34 -11 -48 -25 -14 -14 -33 -25 -44 -25 -10 0 -27 -7 -38 -15
-10 -8 -40 -15 -66 -15 -27 0 -48 -4 -48 -10 0 -13 -57 -13 -65 0 -3 6 -1 10
6 10 7 0 3 9 -9 20 -18 17 -22 32 -22 80 0 38 -4 60 -11 60 -8 0 -9 23 -4 77
10 96 10 91 1 131 -6 26 -4 32 8 32 9 0 16 7 16 15 0 18 47 65 65 65 8 0 15 4
15 9 0 5 17 15 38 22 20 6 58 29 83 50 57 47 86 59 149 59 27 0 50 4 52 10 3
8 113 15 177 10 14 -1 31 6 38 17 10 12 16 14 21 6 4 -6 8 13 8 42 2 59 42
185 62 192 7 3 26 -7 42 -22 27 -26 30 -26 67 -14 21 7 40 12 43 11 3 0 10 4
17 9 13 11 28 -5 18 -20 -3 -5 -1 -30 5 -56 8 -37 7 -50 -5 -68 -10 -15 -15
-17 -15 -6 0 8 -7 25 -16 38 -21 29 -39 14 -25 -22 8 -21 6 -28 -11 -39 -29
-19 -16 -43 15 -27 15 9 22 9 25 1 2 -6 11 -8 20 -5 14 4 15 3 2 -6 -8 -5 -25
-8 -37 -5 -17 5 -25 0 -33 -18 -6 -13 -25 -30 -42 -37 -17 -8 -33 -22 -35 -32
-6 -21 -47 -26 -59 -8 -9 16 44 67 74 71 31 4 42 28 13 28 -21 0 -21 1 -6 30
18 34 18 40 5 40 -5 0 -17 -15 -26 -32 -9 -18 -33 -52 -53 -74 -20 -23 -51
-59 -68 -80 -23 -28 -33 -34 -33 -21 0 22 -16 22 -25 0 -6 -17 -7 -17 -19 0
-15 19 -36 23 -36 7 0 -6 7 -24 15 -40 13 -24 13 -29 0 -34 -19 -7 -10 -34 23
-65 l25 -24 -22 -18 -22 -18 31 -20 c28 -17 76 -19 66 -2 -3 4 10 5 28 3 37
-4 98 10 103 23 2 6 -26 10 -63 10 -60 0 -67 2 -75 23 -5 12 -21 27 -35 32
-37 14 -26 21 48 30 56 7 65 5 87 -14 l24 -21 -7 38 c-5 26 -4 37 5 35 6 -2
14 3 16 10 3 8 -6 12 -25 12 -25 0 -42 14 -42 36 0 2 20 2 45 0 46 -3 70 9 40
20 -25 10 1 33 51 45 39 10 61 29 34 29 -5 0 -10 4 -10 9 0 4 17 6 38 4 36 -3
41 0 110 76 40 44 72 87 72 96 0 10 -20 -5 -52 -41 -78 -85 -98 -108 -98 -116
0 -5 -4 -8 -9 -8 -13 0 3 71 27 115 12 22 22 48 22 57 0 22 7 23 26 3 20 -20
61 -21 45 -1 -9 11 -8 15 6 20 15 6 15 8 3 16 -12 7 -9 10 12 10 15 0 30 5 34
11 4 8 -1 9 -17 4 -21 -7 -22 -6 -11 8 8 9 21 13 30 11 15 -5 16 -4 1 8 -9 7
-18 37 -22 66 -5 45 -4 53 8 48 11 -4 15 2 15 24 0 17 5 30 11 30 7 0 9 10 7
25 -4 20 1 29 23 42 16 10 29 21 29 26 0 5 9 6 20 2 31 -10 44 4 25 25 -16 17
-15 19 5 30 15 8 19 15 12 22 -11 11 -52 -6 -52 -22 0 -6 -4 -10 -10 -10 -5 0
-7 7 -4 15 4 8 1 15 -6 15 -10 0 -10 3 0 15 9 11 9 15 1 15 -7 0 -9 5 -6 10 8
13 45 13 45 0 0 -5 -8 -7 -17 -4 -15 5 -16 4 -3 -5 10 -7 11 -11 3 -11 -7 0
-13 -5 -13 -12 0 -6 9 -3 20 7 11 10 20 23 20 30 0 6 15 18 33 26 17 8 32 21
32 29 0 8 6 21 13 28 6 7 12 22 12 33 0 11 14 34 30 52 66 70 99 135 73 144
-8 3 -13 -4 -13 -16 0 -11 -13 -35 -29 -53 l-29 -33 -7 28 c-11 43 -25 32 -19
-15 5 -37 2 -46 -20 -67 -26 -24 -26 -24 -41 -5 -20 27 -18 47 8 69 20 17 20
20 4 23 -23 5 -12 22 15 22 11 0 22 8 25 19 3 12 17 23 34 26 33 7 33 8 17 34
-10 16 -14 17 -25 5 -21 -20 -28 -17 -31 11 -1 19 2 23 16 18 9 -3 6 3 -8 13
-14 10 -29 19 -35 19 -5 0 -9 13 -8 28 1 15 -1 26 -5 23 -4 -2 -8 17 -9 43 -2
35 0 42 8 28 6 -9 15 -14 21 -11 8 5 9 -5 6 -32 -5 -38 7 -64 32 -64 15 0 12
11 -7 32 -27 30 -9 30 28 -1 19 -15 44 -31 57 -35 23 -8 23 -7 18 48 -3 31 -8
61 -11 66 -3 6 -2 10 3 10 13 0 2 53 -13 65 -7 6 -13 28 -12 50 1 22 -4 40
-11 43 -7 2 -12 9 -12 16 0 7 -13 25 -29 40 -35 33 -45 99 -25 158 12 35 11
40 -10 63 -14 15 -26 43 -29 68 -3 23 -8 58 -11 77 -5 28 -4 30 3 10 5 -14 9
-19 10 -11 1 16 67 -54 76 -81 4 -10 12 -18 18 -18 7 0 18 -9 25 -20 16 -27
32 -25 32 3 0 32 -69 137 -111 170 l-34 27 50 1 c73 2 107 5 135 14 52 15 80
17 80 6 0 -6 8 -11 17 -11 14 0 14 3 -5 20 -24 23 -57 25 -127 7 -27 -7 -77
-12 -109 -12 -66 0 -79 16 -46 57 9 13 21 34 25 48 4 14 13 28 19 32 8 5 8 12
-1 26 -6 10 -14 45 -18 78 -4 32 -12 68 -18 79 -5 11 -10 34 -9 52 1 18 -4 36
-11 40 -24 16 -42 67 -40 115 1 39 -2 48 -15 46 -12 -2 -17 7 -19 37 -2 22 -7
64 -12 93 -5 31 -4 52 1 52 5 0 8 30 7 68 -6 117 3 313 11 267 12 -64 2 232
-10 320 -24 167 -28 222 -25 285 3 43 2 55 -3 35 -5 -18 -9 43 -10 150 l-1
180 21 -25 c18 -22 20 -22 14 -4 -19 62 -37 136 -47 189 -5 33 -31 105 -56
160 -56 121 -67 140 -109 185 -17 19 -38 52 -45 73 -8 22 -46 73 -91 120 -47
50 -77 91 -78 104 0 23 -34 53 -60 53 -9 0 -60 22 -115 50 -144 72 -203 89
-351 100 -171 13 -151 15 -304 -35z m-15 -580 c80 -19 137 -34 212 -56 34 -11
71 -19 82 -19 26 0 118 -46 157 -79 17 -14 41 -34 52 -43 31 -25 47 -93 33
-140 -12 -39 -39 -62 -64 -52 -8 3 -21 -1 -28 -8 -32 -30 -98 -56 -156 -61
-72 -6 -89 -13 -74 -31 6 -7 8 -16 4 -19 -10 -11 -103 -8 -103 3 0 6 -5 10
-12 10 -9 0 -9 -3 0 -12 17 -17 15 -25 -8 -31 -13 -3 -18 -10 -14 -21 4 -12 0
-16 -16 -16 -13 0 -24 -8 -27 -20 -5 -18 -14 -20 -84 -20 -46 0 -79 4 -79 10
0 6 -18 10 -40 10 -22 0 -40 -4 -40 -10 0 -5 -13 -10 -30 -10 -16 0 -35 -6
-42 -14 -16 -17 -95 0 -159 34 -24 13 -61 32 -81 43 -40 20 -47 36 -25 59 6 7
21 40 31 73 20 61 29 83 59 143 9 19 17 43 17 54 0 27 52 116 87 150 81 76
215 105 348 73z m1212 -312 c-3 -10 -5 -2 -5 17 0 19 2 27 5 18 2 -10 2 -26 0
-35z m-1777 -353 c-8 -5 -22 -9 -30 -9 -10 0 -8 3 5 9 27 12 43 12 25 0z m114
-46 c38 -13 74 -28 80 -34 6 -6 -14 -2 -44 10 -73 30 -207 37 -274 16 -27 -8
-44 -10 -38 -4 15 15 153 46 182 41 14 -3 56 -16 94 -29z m402 -61 c-5 -21 -4
-24 4 -13 8 13 10 12 10 -3 0 -10 -5 -28 -12 -40 -16 -29 -18 -46 -7 -53 18
-11 8 -24 -18 -25 l-28 -1 26 -9 c24 -9 25 -13 22 -67 -5 -69 -10 -85 -22 -77
-18 11 -22 -15 -8 -57 11 -31 14 -82 12 -181 -1 -76 -5 -141 -9 -144 -3 -4 -6
-14 -6 -24 0 -9 -11 -24 -24 -32 -41 -28 -148 -59 -176 -52 -14 3 -51 10 -84
15 -32 4 -63 13 -68 18 -18 18 2 65 48 111 24 24 58 69 75 100 16 31 46 74 66
96 19 22 49 60 66 85 41 59 49 67 67 63 13 -4 13 -3 1 5 -8 6 -20 8 -28 5 -33
-13 -80 47 -55 71 4 4 7 16 7 26 0 11 9 26 20 35 l20 17 -20 -7 c-44 -16 -55
-17 -55 -7 0 6 22 18 50 27 46 15 49 18 34 33 -11 11 -13 17 -5 20 6 2 11 12
11 23 0 10 7 19 15 19 8 0 15 6 15 13 0 19 21 37 43 37 16 0 18 -5 13 -27z
m-793 -75 c-6 -11 -73 -10 -73 0 0 4 18 8 39 7 21 0 37 -3 34 -7z m1277 -57
c20 -8 16 -9 -20 -3 -76 12 -192 6 -233 -11 -21 -9 -35 -12 -32 -7 3 5 27 16
53 25 52 16 188 14 232 -4z m-985 -81 c6 -4 28 -13 50 -20 22 -7 34 -15 28
-17 -18 -6 -109 25 -123 42 -9 11 -7 12 12 8 13 -3 28 -9 33 -13z m635 3 c-1
-13 -40 -56 -46 -51 -9 9 19 58 33 58 7 0 13 -3 13 -7z m-355 -131 c-24 -50
-74 -116 -147 -194 -35 -37 -52 -48 -76 -48 -17 0 -33 -4 -36 -9 -7 -11 -76
-20 -76 -9 0 5 -10 6 -23 3 -13 -4 -30 -8 -38 -9 -8 -2 -22 -6 -32 -11 -25
-10 -74 13 -81 38 -11 41 -6 84 11 98 14 12 16 12 8 0 -5 -10 -4 -12 4 -7 6 4
18 2 26 -4 24 -20 17 -2 -11 29 -30 33 -67 101 -60 108 2 3 12 -9 21 -26 19
-37 50 -43 41 -8 -6 25 26 86 46 88 26 3 43 -3 51 -17 4 -8 12 -14 18 -14 5 0
27 -13 49 -29 23 -16 57 -32 78 -36 49 -8 122 15 172 55 22 17 40 28 41 23 0
-4 4 2 10 15 5 13 13 21 18 18 5 -3 -1 -28 -14 -54z m960 -72 c3 -5 1 -10 -4
-10 -6 0 -11 5 -11 10 0 6 2 10 4 10 3 0 8 -4 11 -10z m103 -47 c-5 -25 -28
-28 -28 -4 0 12 6 21 16 21 9 0 14 -7 12 -17z m-445 -175 c19 -1 26 -5 23 -14
-3 -8 -1 -14 3 -14 5 0 11 6 14 13 7 20 42 -6 43 -34 1 -13 7 -25 13 -27 41
-14 -31 -45 -103 -44 -61 0 -114 24 -166 72 l-34 31 25 14 c17 10 44 13 89 9
36 -3 78 -5 93 -6z m207 -3 c-7 -9 -15 -13 -17 -11 -7 7 7 26 19 26 6 0 6 -6
-2 -15z m-965 -204 c3 -10 14 -26 25 -36 11 -10 20 -26 20 -36 0 -9 4 -19 9
-21 4 -1 11 -23 14 -47 l5 -43 -31 7 c-18 3 -70 13 -117 21 -64 11 -89 20
-102 37 -9 12 -15 24 -12 26 2 2 -4 10 -14 17 -18 15 -18 15 56 75 7 6 19 9
26 6 7 -3 19 -1 27 4 8 5 31 9 51 9 27 0 38 -5 43 -19z m1672 -43 c-3 -8 -6
-5 -6 6 -1 11 2 17 5 13 3 -3 4 -12 1 -19z m-1849 -233 c16 -61 16 -62 -15
-70 -32 -8 -53 14 -53 56 0 42 10 59 34 59 17 0 24 -9 34 -45z m172 -25 c67
-34 79 -54 24 -38 -20 5 -42 7 -49 4 -8 -3 -19 2 -25 10 -7 8 -9 14 -4 14 4 0
3 5 -4 12 -12 12 -16 28 -7 28 3 0 32 -14 65 -30z m-148 -205 c20 -14 41 -25
45 -25 4 0 21 -14 37 -30 l29 -30 -26 -26 c-15 -15 -24 -30 -21 -35 3 -5 -9
-15 -26 -23 -28 -11 -37 -11 -69 5 -21 10 -42 24 -48 31 -16 20 -25 84 -17
123 5 30 10 35 33 35 14 0 43 -11 63 -25z m-1069 -642 c-13 -13 -26 -23 -29
-23 -9 0 -4 41 8 60 12 18 13 18 29 2 15 -16 14 -19 -8 -39z m-33 -43 c0 -5
-5 -10 -11 -10 -5 0 -7 5 -4 10 3 6 8 10 11 10 2 0 4 -4 4 -10z m-93 -32 c-3
-8 -6 -5 -6 6 -1 11 2 17 5 13 3 -3 4 -12 1 -19z m43 -103 c0 -8 -4 -15 -10
-15 -5 0 -10 7 -10 15 0 8 5 15 10 15 6 0 10 -7 10 -15z m40 -35 c0 -11 -4
-20 -10 -20 -5 0 -10 2 -10 4 0 2 -3 11 -6 20 -4 11 -1 16 10 16 9 0 16 -8 16
-20z m-73 -72 c-3 -8 -6 -5 -6 6 -1 11 2 17 5 13 3 -3 4 -12 1 -19z m3123 7
c0 -8 5 -15 10 -15 6 0 10 -15 9 -32 l-1 -33 -9 33 c-7 23 -15 32 -25 28 -9
-4 -14 1 -14 14 0 11 7 20 15 20 8 0 15 -7 15 -15z m-3107 -118 c-8 -14 -33
21 -33 48 0 12 3 25 7 29 10 9 35 -63 26 -77z m-2693 -238 c0 -5 -4 -9 -10 -9
-5 0 -10 7 -10 16 0 8 5 12 10 9 6 -3 10 -10 10 -16z m60 -31 c0 -16 -3 -19
-11 -11 -6 6 -8 16 -5 22 11 17 16 13 16 -11z m3512 -883 c20 5 28 1 43 -22
10 -15 24 -32 32 -36 7 -4 13 -21 13 -37 0 -16 4 -31 9 -34 12 -8 44 31 46 57
2 24 3 25 63 13 23 -4 42 -12 42 -17 0 -5 18 -9 40 -9 22 0 40 -4 40 -10 0 -5
6 -10 13 -10 6 0 21 -18 31 -40 19 -39 38 -50 51 -29 4 6 20 0 42 -17 34 -26
35 -26 77 -10 23 9 58 16 77 16 l36 0 7 65 c9 93 13 99 41 70 16 -18 33 -25
61 -25 22 0 52 -7 68 -15 15 -8 36 -15 47 -15 28 0 34 -64 34 -350 0 -251 -9
-339 -37 -357 -6 -3 -7 3 -3 16 9 29 -9 26 -23 -4 -15 -33 -46 -35 -36 -2 4
12 13 31 20 42 8 11 14 43 14 72 0 71 -27 102 -90 104 -25 1 -53 -2 -62 -6
-11 -4 -20 0 -27 14 -11 19 -18 20 -94 14 -45 -3 -87 -8 -93 -12 -7 -3 -28
-26 -48 -49 -20 -25 -36 -37 -36 -29 0 20 -16 30 -31 21 -20 -12 -153 -11
-199 2 -50 14 -158 29 -178 25 -35 -6 -55 82 -23 106 20 15 31 16 31 2 0 -5
-4 -7 -10 -4 -5 3 -10 -3 -10 -14 0 -12 7 -21 15 -21 8 0 15 5 15 10 0 6 13
10 29 10 34 0 50 17 26 26 -14 6 -13 10 11 30 15 13 31 24 36 24 5 0 6 5 3 10
-7 12 -3 12 20 4 15 -6 15 -8 0 -24 -12 -14 -13 -20 -4 -25 7 -5 18 1 28 13
14 18 22 20 59 13 26 -5 45 -5 48 1 10 15 -18 29 -45 24 -42 -7 -51 3 -25 29
27 28 35 67 9 45 -9 -7 -18 -10 -21 -7 -8 7 -1 23 23 57 19 26 13 24 -39 -12
-39 -27 -64 -16 -76 33 -6 23 -8 48 -5 55 3 8 1 14 -5 14 -5 0 -13 -16 -16
-35 -6 -30 -10 -34 -25 -25 -26 14 -34 0 -14 -24 16 -18 15 -18 -11 2 -16 12
-34 22 -42 22 -7 0 -25 13 -41 28 -15 16 -34 31 -42 33 -12 4 -11 10 1 39 8
19 20 62 27 95 11 59 37 97 51 74 4 -5 18 -7 32 -4z m108 -55 c0 -5 -4 -10
-10 -10 -5 0 -10 5 -10 10 0 6 5 10 10 10 6 0 10 -4 10 -10z m2117 -72 c-3 -8
-6 -5 -6 6 -1 11 2 17 5 13 3 -3 4 -12 1 -19z m-5164 -25 c-7 -2 -19 -2 -25 0
-7 3 -2 5 12 5 14 0 19 -2 13 -5z m4581 -15 c5 -9 7 -20 4 -24 -9 -8 -88 -13
-88 -6 0 3 10 16 22 29 25 26 45 27 62 1z m-4614 -59 c-12 -22 -30 -25 -30 -6
0 17 21 38 32 31 4 -3 3 -14 -2 -25z m2879 -28 c8 -14 5 -21 -13 -31 -13 -7
-29 -9 -35 -6 -12 8 -15 39 -4 49 13 13 42 7 52 -12z m94 -59 c16 -17 15 -19
-18 -35 -20 -9 -60 -17 -89 -17 -38 0 -56 -4 -59 -15 -4 -8 -1 -18 5 -21 7 -4
14 -2 16 4 7 21 20 13 15 -8 -3 -11 0 -20 6 -20 6 0 16 9 23 20 7 11 22 20 33
20 11 0 38 7 60 14 47 17 58 4 22 -25 -14 -11 -28 -27 -31 -37 -6 -17 -20 -26
-88 -57 -36 -16 -37 -18 -32 -59 5 -34 3 -44 -9 -49 -26 -10 -61 47 -54 89 3
19 2 34 -4 34 -14 0 -11 40 6 56 8 9 15 24 15 35 0 11 7 22 16 26 9 3 27 17
40 29 30 31 46 31 38 -1 -9 -36 12 -31 25 5 12 35 39 40 64 12z m-4372 -53
c-5 -13 -10 -19 -10 -12 -1 15 10 45 15 40 3 -2 0 -15 -5 -28z m4479 -8 c0 -5
-7 -11 -14 -14 -10 -4 -13 -1 -9 9 6 15 23 19 23 5z m-30 -41 c0 -5 -6 -10
-14 -10 -8 0 -18 5 -21 10 -3 6 3 10 14 10 12 0 21 -4 21 -10z m2395 -60 c3
-5 1 -10 -4 -10 -6 0 -11 5 -11 10 0 6 2 10 4 10 3 0 8 -4 11 -10z m-1780
-240 c8 0 19 -8 24 -18 5 -10 21 -24 35 -32 14 -7 26 -16 26 -20 0 -14 -46
-26 -80 -20 -32 5 -35 8 -38 44 -4 41 7 81 15 59 3 -7 11 -13 18 -13z m-3649
-248 c-11 -10 -15 4 -8 28 l7 25 3 -23 c2 -13 1 -26 -2 -30z m8029 18 c3 -5 1
-10 -4 -10 -6 0 -11 5 -11 10 0 6 2 10 4 10 3 0 8 -4 11 -10z m-4225 -60 c-20
-13 -43 -13 -35 0 3 6 16 10 28 10 18 0 19 -2 7 -10z m4231 -53 c-10 -9 -11
-8 -5 6 3 10 9 15 12 12 3 -3 0 -11 -7 -18z m-8057 -12 c-6 -16 -24 -21 -24
-7 0 11 11 22 21 22 5 0 6 -7 3 -15z m2623 -47 c-3 -8 -6 -5 -6 6 -1 11 2 17
5 13 3 -3 4 -12 1 -19z m5380 -30 c-5 -24 -29 -70 -51 -103 -23 -33 -56 -100
-74 -150 -48 -130 -60 -155 -77 -155 -22 0 -48 45 -40 72 17 62 49 117 71 122
19 5 24 13 24 36 0 19 19 58 56 112 79 117 109 139 91 66z m683 -107 c5 -11
10 -26 10 -33 0 -17 -120 -62 -132 -50 -5 5 -8 27 -6 48 2 31 8 40 28 45 50
14 89 10 100 -10z m-2106 -64 c7 -5 4 -6 -7 -3 -10 3 -25 6 -33 6 -12 0 -13 4
-3 22 11 20 12 21 22 2 6 -10 15 -23 21 -27z m1931 -13 l6 -51 -73 -58 c-40
-32 -86 -73 -101 -92 -32 -37 -75 -44 -98 -17 -11 13 -10 21 5 49 27 50 76
105 92 105 8 0 13 -3 10 -8 -2 -4 -1 -23 4 -42 l8 -35 2 40 c2 59 7 75 26 96
15 16 105 69 111 65 0 -1 4 -24 8 -52z m-1860 13 c12 -3 4 -5 -17 -6 -21 0
-38 3 -38 8 0 12 23 20 30 11 3 -4 14 -10 25 -13z m570 -65 c43 -72 50 -105
23 -110 -21 -4 -78 72 -78 104 0 13 -4 25 -9 28 -12 8 -2 46 13 46 6 0 29 -31
51 -68z m895 -48 c-33 -54 -69 -108 -80 -119 -18 -18 -21 -18 -36 -3 -14 13
-15 22 -6 47 14 39 23 51 101 129 38 37 67 60 73 54 5 -5 -16 -49 -52 -108z
m755 86 c3 -5 2 -10 -4 -10 -5 0 -13 5 -16 10 -3 6 -2 10 4 10 5 0 13 -4 16
-10z m-7247 -98 c75 -50 195 -112 216 -112 4 0 33 -12 64 -26 78 -36 150 -61
196 -69 34 -6 37 -8 24 -21 -10 -11 -44 -14 -132 -15 l-118 -1 -102 50 c-97
47 -263 161 -273 189 -13 35 9 28 72 -23 78 -64 163 -107 197 -102 19 3 16 6
-17 17 -22 7 -48 20 -57 29 -10 8 -18 12 -18 8 0 -5 -23 8 -50 28 -28 20 -53
36 -56 36 -7 0 -29 25 -45 53 -17 30 9 20 99 -41z m6002 -177 c0 -14 -4 -25
-10 -25 -5 0 -10 11 -10 25 0 14 5 25 10 25 6 0 10 -11 10 -25z m1667 -51 c-3
-3 -12 -4 -19 -1 -8 3 -5 6 6 6 11 1 17 -2 13 -5z m-1503 -173 c10 -17 15 -38
12 -47 -5 -12 -13 -8 -41 17 -36 34 -51 62 -40 79 10 16 46 -10 69 -49z m144
-8 c-16 -16 -19 -15 -44 12 -25 27 -25 29 -8 42 16 12 21 10 43 -12 24 -23 24
-26 9 -42z m-298 6 c0 -11 -4 -17 -10 -14 -5 3 -10 15 -10 26 0 11 5 17 10 14
6 -3 10 -15 10 -26z m504 -40 c61 -40 116 -85 127 -102 10 -17 17 -33 15 -34
-8 -9 -147 52 -202 88 -75 49 -108 83 -101 103 12 30 54 15 161 -55z m-243
-75 c11 -14 10 -15 -11 -12 -13 1 -25 9 -28 16 -5 17 23 15 39 -4z m-11547
-20 c3 -8 2 -12 -4 -9 -6 3 -10 10 -10 16 0 14 7 11 14 -7z m12069 -30 c52
-17 86 -39 75 -49 -12 -12 -97 18 -119 41 -27 28 -24 29 44 8z m267 -76 c16
-17 28 -33 27 -34 -10 -10 -99 22 -118 42 l-22 24 42 0 c35 0 47 -6 71 -32z
m-2489 -1458 c19 -14 34 -42 53 -102 16 -50 23 -85 17 -91 -5 -5 -34 -15 -64
-22 l-55 -13 -11 42 c-20 75 -30 81 -134 80 -51 0 -151 -11 -224 -23 -73 -12
-168 -24 -212 -27 l-80 -5 -50 49 c-28 26 -51 54 -51 60 0 7 15 12 33 13 17 0
93 2 167 4 74 2 153 8 175 14 22 6 110 18 195 26 85 9 157 18 159 21 9 8 53
-6 82 -26z m-2561 -156 c10 -26 -1 -54 -21 -54 -14 0 -11 38 4 44 10 5 10 7 0
12 -16 7 -17 24 -3 24 6 0 15 -12 20 -26z m2746 -162 c6 -4 14 -25 18 -46 4
-21 21 -62 37 -91 16 -29 27 -59 24 -67 -4 -9 2 -24 12 -33 13 -13 14 -20 5
-23 -21 -7 -13 -29 13 -34 14 -3 25 -1 25 5 0 6 3 8 6 4 10 -10 -7 -48 -18
-41 -7 4 -8 2 -4 -4 4 -7 20 -9 39 -5 31 5 31 5 12 -10 -20 -16 -20 -16 5 -17
22 -1 20 -3 -13 -17 -35 -14 -39 -14 -57 2 -10 9 -26 32 -35 51 -14 30 -19 33
-43 28 -37 -9 -42 -13 -42 -31 0 -8 9 -17 20 -20 31 -8 28 -61 -4 -69 -44 -11
-59 -1 -74 46 -7 25 -13 64 -13 87 -1 33 -7 47 -32 70 -83 77 -107 131 -68
153 41 21 68 12 92 -30 13 -22 27 -40 31 -40 5 0 6 22 2 49 -9 71 20 111 62
83z m-282 -114 c22 -24 62 -61 88 -84 34 -30 44 -44 37 -55 -7 -11 -9 -11 -9
4 0 18 -15 23 -24 9 -3 -5 5 -15 18 -22 30 -16 42 -70 14 -62 -10 2 -18 9 -18
14 0 5 -9 6 -20 3 -21 -7 -29 10 -7 18 6 2 9 8 4 12 -4 5 -13 3 -19 -3 -7 -7
-21 -12 -32 -12 -19 0 -19 0 -1 14 18 13 18 15 -15 28 -56 24 -130 102 -130
137 0 29 8 34 58 40 8 0 33 -18 56 -41z m-114 -60 c41 -44 82 -88 90 -96 12
-13 11 -14 -9 -7 -17 5 -22 4 -19 -6 3 -8 18 -17 34 -20 16 -4 21 -7 10 -8
-14 -1 -16 -4 -7 -15 9 -10 8 -15 -4 -20 -9 -3 -15 0 -15 8 0 8 -6 14 -12 13
-58 -2 -68 3 -62 28 4 16 2 25 -6 25 -6 0 -8 -5 -3 -12 10 -18 -51 29 -103 78
-33 31 -44 49 -44 72 0 30 8 36 60 41 8 0 49 -36 90 -81z m500 -49 c0 -6 -4
-7 -10 -4 -5 3 -10 11 -10 16 0 6 5 7 10 4 6 -3 10 -11 10 -16z m-300 -107 c0
9 3 9 10 -2 5 -8 10 -11 10 -6 0 5 9 1 20 -9 11 -10 20 -30 20 -45 0 -24 -5
-28 -41 -34 -23 -4 -43 -5 -45 -4 -1 2 -6 27 -10 57 -7 52 -6 53 15 42 16 -9
21 -9 21 1z m-122 -59 c33 -36 28 -58 -15 -71 -21 -6 -40 -8 -44 -4 -5 6 -29
92 -29 106 0 14 68 -10 88 -31z"/>
<path d="M7650 8940 c0 -5 7 -10 15 -10 8 0 15 5 15 10 0 6 -7 10 -15 10 -8 0
-15 -4 -15 -10z"/>
<path d="M7580 8834 c0 -10 28 -34 39 -34 18 0 12 19 -8 30 -22 11 -31 13 -31
4z"/>
<path d="M7738 8803 c7 -3 16 -2 19 1 4 3 -2 6 -13 5 -11 0 -14 -3 -6 -6z"/>
<path d="M6970 4864 c0 -8 5 -12 10 -9 6 3 10 10 10 16 0 5 -4 9 -10 9 -5 0
-10 -7 -10 -16z"/>
<path d="M6970 4793 c1 -14 27 -43 39 -43 16 0 14 16 -5 34 -16 17 -34 21 -34
9z"/>
<path d="M6790 4630 c19 -13 30 -13 30 0 0 6 -10 10 -22 10 -19 0 -20 -2 -8
-10z"/>
<path d="M9058 7587 c-6 -69 7 -94 16 -32 4 26 10 53 12 60 3 7 -1 15 -10 18
-11 4 -15 -6 -18 -46z"/>
<path d="M3146 6888 c-25 -50 -18 -64 10 -22 15 21 32 42 38 46 6 5 2 8 -11 8
-14 0 -27 -11 -37 -32z"/>
<path d="M9440 6830 c46 -38 62 -38 25 0 -16 17 -36 30 -44 30 -9 0 -2 -12 19
-30z"/>
<path d="M11888 6803 c6 -2 18 -2 25 0 6 3 1 5 -13 5 -14 0 -19 -2 -12 -5z"/>
<path d="M12688 6773 c6 -2 18 -2 25 0 6 3 1 5 -13 5 -14 0 -19 -2 -12 -5z"/>
<path d="M12288 6763 c6 -2 18 -2 25 0 6 3 1 5 -13 5 -14 0 -19 -2 -12 -5z"/>
<path d="M12853 6763 c32 -2 81 -2 110 0 29 2 3 3 -58 3 -60 0 -84 -1 -52 -3z"/>
<path d="M13658 6763 c12 -2 30 -2 40 0 9 3 -1 5 -23 4 -22 0 -30 -2 -17 -4z"/>
<path d="M13908 6763 c17 -2 47 -2 65 0 17 2 3 4 -33 4 -36 0 -50 -2 -32 -4z"/>
<path d="M9397 6703 c-18 -17 8 -62 36 -63 12 0 7 34 -7 53 -14 19 -19 20 -29
10z"/>
<path d="M9259 6603 c-3 -21 4 -59 12 -67 5 -6 9 -18 9 -28 0 -10 7 -18 15
-18 9 0 18 -7 21 -15 9 -24 24 -18 24 10 0 34 -27 87 -56 108 -13 10 -24 14
-25 10z"/>
<path d="M11040 6485 c0 -11 -3 -31 -6 -45 -5 -24 -5 -24 11 3 11 20 13 32 6
45 -10 15 -10 15 -11 -3z"/>
<path d="M11156 6415 c43 -50 64 -66 64 -49 0 3 -9 19 -20 34 -11 16 -17 35
-14 44 3 9 1 16 -5 16 -6 0 -11 -5 -11 -11 0 -8 -4 -8 -12 -2 -42 32 -43 15
-2 -32z"/>
<path d="M5770 6397 c0 -13 45 -76 59 -82 24 -9 20 -1 -20 45 -21 25 -39 42
-39 37z"/>
<path d="M11318 6343 c7 -3 16 -2 19 1 4 3 -2 6 -13 5 -11 0 -14 -3 -6 -6z"/>
<path d="M11278 6333 c7 -3 16 -2 19 1 4 3 -2 6 -13 5 -11 0 -14 -3 -6 -6z"/>
<path d="M11225 6320 c-3 -5 3 -10 14 -10 12 0 21 5 21 10 0 6 -6 10 -14 10
-8 0 -18 -4 -21 -10z"/>
<path d="M11360 6320 c0 -6 7 -10 15 -10 8 0 15 2 15 4 0 2 -7 6 -15 10 -8 3
-15 1 -15 -4z"/>
<path d="M5860 6303 c0 -4 5 -15 10 -23 8 -13 10 -13 10 2 0 9 -4 20 -10 23
-5 3 -10 3 -10 -2z"/>
<path d="M2966 6264 c-4 -20 -5 -38 -3 -40 3 -3 8 11 11 32 4 20 5 38 3 40 -3
3 -8 -11 -11 -32z"/>
<path d="M11838 6235 c17 -14 34 -25 38 -25 11 0 -48 49 -59 50 -5 0 5 -11 21
-25z"/>
<path d="M11050 6243 c0 -6 -3 -18 -6 -27 -3 -9 -2 -16 4 -16 15 0 24 32 12
44 -7 7 -10 7 -10 -1z"/>
<path d="M11954 6224 c3 -9 6 -19 6 -24 0 -11 39 -20 45 -9 10 15 -15 49 -36
49 -15 0 -19 -5 -15 -16z"/>
<path d="M12047 6202 c-21 -23 -22 -70 -1 -110 8 -18 16 -32 17 -32 1 0 47
-16 101 -35 55 -19 109 -35 120 -34 12 0 15 3 8 6 -20 8 -100 117 -117 161
-13 33 -23 42 -48 47 -18 4 -39 8 -48 11 -9 2 -23 -4 -32 -14z"/>
<path d="M9091 6174 c0 -11 3 -14 6 -6 3 7 2 16 -1 19 -3 4 -6 -2 -5 -13z"/>
<path d="M12263 6162 c9 -10 17 -23 17 -29 0 -6 6 -16 14 -23 8 -6 13 -17 10
-24 -7 -17 109 -117 160 -137 36 -15 43 -15 57 -3 9 8 39 17 68 21 28 3 51 9
51 14 0 4 8 9 18 12 15 3 15 5 -3 12 -11 4 -39 16 -62 26 -23 11 -47 19 -53
19 -6 0 -48 22 -93 48 -84 50 -120 66 -172 77 -28 6 -29 6 -12 -13z"/>
<path d="M12475 6132 c10 -9 124 -72 210 -115 22 -11 52 -26 68 -34 15 -8 27
-10 27 -5 0 6 21 12 48 15 26 3 74 12 107 19 l60 15 -55 11 c-30 7 -79 10
-107 8 -30 -2 -50 0 -47 5 3 5 -1 9 -10 9 -8 0 -16 -5 -18 -10 -2 -6 -12 -3
-23 8 -11 10 -27 16 -34 14 -8 -3 -11 0 -8 5 4 6 -14 13 -43 17 -27 4 -64 13
-82 20 -46 19 -106 31 -93 18z"/>
<path d="M11005 5999 c-4 -27 -4 -53 -1 -56 3 -4 6 5 6 20 0 14 5 29 10 32 12
8 13 42 1 49 -5 3 -12 -17 -16 -45z"/>
<path d="M13490 5949 c0 -5 5 -7 10 -4 6 3 10 8 10 11 0 2 -4 4 -10 4 -5 0
-10 -5 -10 -11z"/>
<path d="M13070 5940 c8 -5 20 -10 25 -10 6 0 3 5 -5 10 -8 5 -19 10 -25 10
-5 0 -3 -5 5 -10z"/>
<path d="M11470 5904 c0 -9 32 -33 44 -34 5 0 1 9 -9 20 -18 20 -35 26 -35 14z"/>
<path d="M4471 5874 c0 -11 3 -14 6 -6 3 7 2 16 -1 19 -3 4 -6 -2 -5 -13z"/>
<path d="M11300 5883 c-8 -4 -20 -11 -26 -17 -6 -6 -21 -18 -33 -26 -11 -8
-21 -20 -21 -27 0 -7 -4 -13 -9 -13 -5 0 -11 -7 -15 -15 -4 -12 -2 -13 12 -7
9 5 42 6 72 3 50 -6 57 -4 76 18 26 30 51 23 67 -19 6 -17 15 -30 19 -30 14 0
88 -72 88 -85 0 -21 -53 -28 -86 -10 -16 8 -34 15 -41 15 -7 0 -34 8 -60 17
-29 10 -82 17 -135 18 l-87 1 -14 -35 c-22 -57 -40 -158 -33 -185 4 -16 13
-26 25 -26 10 0 21 -3 24 -7 10 -10 -62 -75 -77 -70 -8 3 -17 -7 -24 -29 -9
-29 -8 -33 3 -24 22 18 31 -70 12 -109 -14 -28 -14 -29 3 -23 10 4 47 34 82
68 35 33 77 69 93 80 17 10 33 22 36 27 9 12 168 39 181 31 7 -5 9 0 6 14 -4
12 -2 24 2 27 15 9 214 -25 230 -40 22 -20 49 -19 56 3 3 9 12 33 20 52 8 20
15 60 16 90 0 56 7 80 34 118 14 18 14 22 3 20 -9 -2 -15 8 -17 32 -2 19 -8
41 -14 47 -6 7 -8 19 -5 27 4 10 1 13 -7 10 -8 -3 -17 -1 -21 5 -3 6 -15 11
-25 11 -19 0 -19 -1 0 -35 11 -20 20 -49 20 -65 0 -26 -4 -30 -28 -30 -20 0
-32 8 -44 28 -16 26 -16 30 -1 45 14 14 14 18 -8 46 -13 16 -31 30 -40 30 -9
1 -28 10 -42 21 -29 23 -45 27 -28 7 6 -8 8 -16 6 -19 -3 -3 6 -13 20 -22 14
-9 25 -23 25 -31 0 -7 7 -21 16 -29 8 -9 12 -21 8 -27 -5 -8 -12 -5 -23 8 -9
11 -47 48 -85 82 l-68 61 -62 -1 c-33 0 -68 -3 -76 -6z m-16 -269 c-7 -36 -6
-37 19 -31 15 4 42 -1 69 -13 33 -14 52 -17 74 -10 16 4 25 9 20 9 -11 1 25
30 37 31 5 0 5 -5 2 -10 -7 -11 3 -16 55 -24 25 -4 40 -15 51 -34 15 -27 15
-30 -2 -40 -25 -16 -159 -15 -180 1 -11 8 -63 12 -162 12 -138 0 -175 5 -126
18 15 4 20 11 15 23 -3 9 -3 32 0 51 7 40 28 51 92 52 l43 1 -7 -36z m-81
-232 c-2 -13 -15 -34 -30 -47 -30 -26 -49 -33 -37 -12 4 7 3 8 -2 4 -5 -5 -9
-16 -9 -24 0 -27 -24 -26 -31 1 -11 47 42 108 91 103 14 -1 19 -8 18 -25z"/>
<path d="M13117 5869 c7 -7 15 -10 18 -7 3 3 -2 9 -12 12 -14 6 -15 5 -6 -5z"/>
<path d="M13559 5856 c14 -15 29 -22 39 -18 12 4 10 8 -11 15 -15 5 -27 13
-27 18 0 5 -5 9 -12 9 -6 0 -1 -11 11 -24z"/>
<path d="M13090 5846 c0 -2 11 -6 25 -8 13 -3 22 -1 19 3 -5 9 -44 13 -44 5z"/>
<path d="M2867 5801 c-4 -18 -7 -43 -6 -55 1 -11 5 -1 10 24 5 25 7 49 6 55
-2 5 -7 -5 -10 -24z"/>
<path d="M13590 5820 c0 -5 6 -10 13 -10 8 0 7 -4 -3 -10 -17 -11 -10 -13 14
-4 13 5 13 8 1 20 -16 16 -25 18 -25 4z"/>
<path d="M12961 5774 c0 -11 3 -14 6 -6 3 7 2 16 -1 19 -3 4 -6 -2 -5 -13z"/>
<path d="M5655 5774 c6 -5 37 -28 69 -49 52 -35 57 -40 36 -43 -17 -3 9 -19
100 -63 68 -33 125 -57 128 -54 3 3 -3 15 -14 27 -19 22 -19 23 1 8 11 -8 34
-28 50 -43 39 -38 103 -70 123 -62 14 5 14 7 -1 18 -8 6 -21 31 -27 55 -12 47
-24 55 -26 16 -1 -14 -5 -28 -8 -31 -3 -4 -28 9 -56 28 -37 25 -50 40 -50 59
0 48 -12 67 -52 89 -23 12 -43 19 -46 16 -3 -3 13 -22 36 -43 36 -34 53 -62
37 -62 -15 0 -162 64 -230 101 -44 23 -75 38 -70 33z"/>
<path d="M13447 5720 c3 -11 9 -20 15 -20 5 0 4 9 -2 20 -6 11 -12 20 -14 20
-2 0 -2 -9 1 -20z"/>
<path d="M12961 5714 c0 -11 3 -14 6 -6 3 7 2 16 -1 19 -3 4 -6 -2 -5 -13z"/>
<path d="M2853 5670 c0 -30 2 -43 4 -27 2 15 2 39 0 55 -2 15 -4 2 -4 -28z"/>
<path d="M14240 5701 c0 -5 10 -12 23 -16 19 -6 20 -8 4 -12 -27 -7 -1 -33 32
-32 25 1 25 2 -4 9 -16 4 -22 8 -12 9 20 1 21 10 3 34 -14 18 -46 24 -46 8z"/>
<path d="M14369 5687 c20 -12 22 -16 9 -18 -15 -4 -15 -6 -3 -23 8 -11 21 -16
29 -13 13 5 14 11 4 32 -6 14 -15 25 -19 25 -4 0 -16 3 -26 6 -10 3 -7 -1 6
-9z"/>
<path d="M11963 5678 c-46 -10 -80 -45 -107 -110 -9 -19 -22 -38 -31 -42 -11
-4 -14 -13 -10 -26 5 -15 0 -22 -19 -30 -31 -11 -36 -54 -8 -64 9 -3 23 -9 30
-12 18 -9 15 24 -4 34 -24 13 -9 30 22 24 14 -2 29 -14 34 -27 5 -14 29 -30
67 -45 32 -13 60 -26 63 -29 10 -11 96 -67 125 -81 17 -8 41 -25 55 -38 14
-12 44 -32 68 -43 45 -22 56 -54 28 -81 -12 -12 -10 -20 9 -52 13 -21 21 -45
18 -52 -3 -8 -1 -14 4 -14 5 0 9 -10 10 -21 2 -27 7 -31 25 -24 19 7 57 84 65
128 4 26 0 39 -18 60 -13 14 -35 39 -49 57 -14 17 -43 43 -65 57 -57 39 -146
93 -154 93 -12 1 -51 38 -51 50 0 13 16 9 110 -27 109 -42 174 -87 192 -133 9
-23 10 -24 20 -7 5 11 12 45 15 77 5 55 3 61 -27 99 -17 23 -40 41 -51 41 -10
0 -28 9 -39 20 -19 19 -19 22 -5 50 9 17 11 30 5 30 -5 0 -10 6 -10 13 0 14
-60 57 -79 57 -7 0 -20 7 -28 16 -16 16 -28 16 -105 -2 -24 -5 -28 -3 -28 14
0 12 5 24 12 28 8 5 6 10 -8 15 -24 9 -29 9 -81 -3z m246 -146 c19 -9 37 -23
39 -31 3 -8 0 -11 -6 -7 -6 3 -12 1 -14 -6 -3 -9 -21 -10 -77 -1 -84 13 -106
27 -77 49 27 19 94 18 135 -4z"/>
<path d="M14190 5660 c0 -5 5 -10 11 -10 5 0 7 5 4 10 -3 6 -8 10 -11 10 -2 0
-4 -4 -4 -10z"/>
<path d="M12962 5640 c0 -14 2 -19 5 -12 2 6 2 18 0 25 -3 6 -5 1 -5 -13z"/>
<path d="M13081 5644 c0 -11 3 -14 6 -6 3 7 2 16 -1 19 -3 4 -6 -2 -5 -13z"/>
<path d="M14466 5645 c4 -8 12 -15 20 -15 19 0 18 16 -2 24 -22 9 -24 8 -18
-9z"/>
<path d="M13820 5623 c13 -18 26 -30 29 -28 3 3 -8 18 -23 33 l-29 27 23 -32z"/>
<path d="M13920 5630 c20 -13 33 -13 25 0 -3 6 -14 10 -23 10 -15 0 -15 -2 -2
-10z"/>
<path d="M13641 5594 c0 -11 3 -14 6 -6 3 7 2 16 -1 19 -3 4 -6 -2 -5 -13z"/>
<path d="M12832 5580 c0 -14 2 -19 5 -12 2 6 2 18 0 25 -3 6 -5 1 -5 -13z"/>
<path d="M14010 5582 c0 -10 22 -32 32 -32 15 0 8 15 -12 28 -11 7 -20 9 -20
4z"/>
<path d="M13681 5564 c0 -11 3 -14 6 -6 3 7 2 16 -1 19 -3 4 -6 -2 -5 -13z"/>
<path d="M6141 5534 c0 -11 3 -14 6 -6 3 7 2 16 -1 19 -3 4 -6 -2 -5 -13z"/>
<path d="M13651 5534 c0 -11 3 -14 6 -6 3 7 2 16 -1 19 -3 4 -6 -2 -5 -13z"/>
<path d="M14120 5523 c0 -7 -5 -13 -11 -13 -6 0 8 -16 31 -35 23 -19 47 -35
53 -35 7 0 7 -4 -2 -9 -12 -7 -10 -22 9 -92 43 -160 57 -242 63 -381 4 -96 1
-100 -56 -79 -22 9 -25 17 -32 95 -4 48 -11 99 -15 114 l-8 27 -1 -27 c-2 -48
-17 -30 -18 20 0 27 -4 59 -7 70 -5 13 -3 22 3 22 6 0 12 -19 12 -42 1 -26 4
-33 6 -19 11 54 -58 318 -79 305 -4 -3 -8 3 -8 13 -1 16 -2 16 -10 2 -10 -17
6 -86 34 -151 11 -25 16 -68 17 -130 0 -61 3 -86 9 -73 8 19 9 19 9 -2 1 -12
-3 -25 -9 -28 -10 -6 -5 -74 12 -139 9 -37 8 -41 -26 -75 l-36 -37 10 -119 c6
-66 14 -151 19 -190 14 -118 -10 -110 -55 20 -35 100 -40 221 -11 253 17 19
17 20 -11 25 l-29 6 3 123 c2 68 -1 148 -6 178 -5 30 -15 97 -21 148 -7 50
-16 92 -20 92 -4 0 -6 -8 -4 -17 2 -10 6 -34 9 -53 l5 -35 -14 30 -15 30 5
-38 c2 -22 10 -44 19 -50 14 -12 28 -120 14 -110 -5 2 -9 -24 -9 -59 l-1 -63
-10 50 c-6 33 -6 64 1 92 14 54 14 66 -1 57 -7 -4 -8 -3 -4 5 4 6 1 18 -7 26
-11 10 -17 50 -22 142 -8 160 -7 156 -25 160 -9 3 -11 1 -5 -4 11 -9 19 -63
10 -63 -3 0 -11 14 -16 30 -6 17 -15 30 -19 30 -5 0 -1 -18 8 -39 9 -22 19
-38 22 -36 6 4 11 -46 18 -203 1 -26 6 -41 12 -37 6 3 10 -1 10 -9 0 -9 -4
-16 -10 -16 -5 0 -10 -10 -10 -22 0 -34 29 -165 44 -201 12 -31 13 -29 15 42
2 93 10 106 12 20 3 -91 -1 -132 -12 -144 -7 -7 -8 -5 -5 5 6 16 -9 48 -18 39
-3 -3 -1 -21 4 -40 14 -49 12 -69 -7 -75 -41 -13 -103 -44 -103 -53 0 -5 -8
-17 -17 -27 -16 -15 -16 -20 0 -62 18 -52 10 -72 -28 -72 -13 0 -38 -12 -55
-27 -27 -22 -31 -31 -26 -57 3 -17 11 -67 19 -111 18 -100 33 -133 78 -173 53
-46 93 -60 202 -68 60 -4 101 -12 108 -20 16 -19 -29 -28 -103 -20 -60 7 -112
-1 -208 -31 -25 -7 -184 -32 -355 -54 -440 -56 -409 -50 -413 -76 -4 -24 26
-72 44 -73 6 0 25 7 42 16 17 8 50 16 74 17 24 1 50 9 59 19 10 9 39 19 66 23
26 3 56 11 66 16 11 6 58 16 105 24 116 18 208 39 317 71 96 27 316 46 328 27
14 -23 -14 -36 -95 -43 -119 -9 -179 -46 -193 -116 -3 -19 -10 -34 -16 -34 -6
0 -7 -4 -4 -10 3 -5 1 -10 -4 -10 -6 0 -11 7 -11 16 0 9 -13 32 -30 51 -16 18
-30 31 -30 28 0 -9 64 -120 73 -126 5 -3 8 -9 8 -13 -3 -20 0 -26 9 -21 6 3
10 -2 10 -12 0 -10 7 -29 16 -42 13 -18 15 -36 10 -86 -6 -61 -5 -64 21 -85
l28 -22 3 32 c5 50 27 30 28 -26 1 -87 38 -136 146 -189 77 -38 148 -92 148
-112 0 -8 -13 -13 -36 -13 -21 0 -33 -4 -29 -10 17 -27 -64 4 -87 33 -15 20
-17 20 -23 4 -6 -13 -19 -17 -57 -17 -40 0 -49 -3 -44 -15 3 -8 1 -15 -4 -15
-6 0 -10 4 -10 8 0 18 -77 89 -102 94 -15 3 -25 1 -22 -3 3 -5 14 -9 25 -9 11
0 18 -4 14 -9 -3 -5 -1 -12 5 -16 5 -3 10 -11 10 -16 0 -12 -125 -2 -152 12
-9 5 -20 18 -23 29 -3 11 -13 20 -21 20 -8 0 -13 4 -10 9 8 12 -140 148 -151
138 -3 -4 9 -18 26 -33 18 -14 29 -29 26 -32 -2 -3 -14 3 -25 13 -11 10 -20
14 -20 9 0 -16 109 -96 122 -88 7 4 8 3 4 -4 -3 -6 3 -16 14 -22 34 -18 23
-27 -27 -23 -74 7 -117 28 -169 83 -49 53 -64 61 -59 33 2 -10 4 -21 4 -26 1
-4 12 -13 26 -19 14 -6 25 -17 25 -24 0 -7 9 -19 21 -27 25 -18 9 -32 -24 -21
-46 15 -110 3 -223 -42 -65 -25 -153 -52 -198 -61 -110 -20 -117 -24 -81 -35
71 -21 249 1 300 37 11 8 30 22 42 31 23 17 25 17 150 33 46 5 91 14 100 19
10 6 36 8 58 5 22 -2 46 -5 53 -5 6 -1 12 -6 12 -11 0 -5 9 -7 20 -4 10 3 24
-1 31 -9 12 -15 4 -17 -56 -15 -44 2 -121 -23 -160 -53 -18 -14 -36 -26 -39
-26 -3 0 -33 -18 -66 -39 -34 -22 -105 -53 -160 -71 -55 -17 -100 -36 -100
-42 0 -7 30 -9 88 -6 114 7 228 52 273 108 31 38 48 46 202 95 56 18 69 29 45
38 -12 4 10 3 115 -7 23 -3 37 0 37 7 0 15 20 -14 20 -30 0 -6 -26 -26 -57
-45 -104 -61 -118 -70 -167 -109 -27 -22 -60 -39 -74 -39 -13 0 -48 -13 -76
-29 -28 -16 -66 -32 -84 -36 -48 -10 -95 -36 -85 -46 10 -10 205 6 261 21 68
18 159 81 263 182 l106 104 64 -2 c76 -1 106 -9 106 -28 0 -8 -6 -12 -14 -9
-7 3 -13 0 -13 -6 0 -6 -6 -11 -13 -11 -7 0 -23 -9 -35 -20 -12 -11 -26 -20
-31 -20 -6 0 -14 -6 -18 -14 -4 -8 -53 -54 -108 -103 -99 -87 -199 -157 -262
-182 -39 -16 -34 -31 10 -31 41 0 192 54 233 83 67 47 174 152 169 165 -3 7 0
10 6 7 13 -8 47 35 79 100 24 49 26 50 70 50 38 0 45 -3 48 -21 2 -12 -8 -34
-21 -50 -13 -16 -31 -42 -40 -59 -8 -16 -23 -45 -32 -63 -20 -37 -190 -212
-247 -255 -21 -15 -38 -32 -38 -36 0 -25 201 60 253 106 33 31 105 160 104
187 -2 27 -11 34 -22 16 -13 -22 -24 -9 -13 16 9 19 18 24 34 21 20 -3 24 1
29 37 10 63 24 86 56 86 29 0 47 16 33 30 -5 4 -35 10 -67 13 -32 2 -59 6 -61
8 -11 14 -26 51 -26 67 0 10 -12 29 -26 43 -14 13 -34 40 -45 60 -27 53 -63
199 -52 210 14 14 48 -42 131 -212 67 -137 74 -147 104 -153 19 -4 34 -2 36 4
2 5 10 10 18 10 8 0 14 2 14 5 0 3 7 41 16 83 12 57 14 99 9 162 -11 122 -6
253 8 267 8 8 50 14 112 15 129 4 195 -2 222 -19 20 -13 24 -12 50 15 15 16
38 32 51 36 12 4 22 12 22 18 0 5 7 7 16 4 8 -3 13 -2 10 3 -6 9 32 19 107 28
l49 5 64 -68 c35 -38 64 -76 64 -85 0 -9 10 -23 23 -32 13 -8 68 -58 122 -112
54 -53 110 -102 124 -110 14 -7 82 -72 151 -145 213 -224 319 -330 330 -330 5
0 10 22 10 50 0 28 -4 50 -10 50 -5 0 -19 8 -31 18 -24 19 -281 278 -331 333
-131 143 -188 208 -188 215 0 2 -17 20 -37 42 -50 50 -104 138 -97 157 4 8 -1
17 -9 21 -9 3 -13 12 -10 21 4 11 2 14 -5 9 -7 -4 -15 8 -22 34 -8 29 -17 41
-34 46 -16 4 -26 15 -30 36 -5 25 -9 28 -28 22 -13 -3 -20 -3 -16 1 8 9 -22
65 -35 65 -4 0 -7 6 -5 13 1 6 -1 24 -5 39 -6 21 -13 27 -30 25 -16 -1 -22 3
-22 18 -1 11 -7 19 -14 17 -10 -2 -12 5 -7 28 3 17 1 37 -4 43 -5 7 -22 28
-38 47 -16 19 -37 50 -47 69 -15 30 -15 33 -1 28 13 -5 16 0 16 26 0 18 3 64
6 102 6 80 -9 74 -25 -10 -6 -27 -19 -98 -30 -156 -19 -98 -41 -162 -60 -173
-10 -7 -8 -127 3 -144 10 -16 26 -15 26 2 0 16 31 16 42 1 19 -25 -3 -117 -36
-154 -9 -10 -31 -25 -47 -31 -26 -11 -31 -10 -47 11 l-19 22 -39 -30 c-21 -17
-51 -33 -66 -37 -15 -3 -34 -14 -44 -24 -13 -12 -31 -16 -68 -15 -27 1 -55 -2
-62 -8 -9 -7 -13 4 -19 46 -3 30 -10 55 -15 55 -14 0 -30 59 -18 66 6 4 14 0
19 -7 5 -8 9 -9 10 -4 0 6 3 33 6 60 3 28 5 79 4 115 -4 100 -3 157 4 254 4
48 4 123 0 165 l-8 76 -13 -69 c-7 -38 -16 -71 -20 -75 -9 -9 2 116 17 179 12
55 12 56 -14 82 -15 15 -28 42 -32 64 -3 22 -12 71 -20 109 -9 39 -15 86 -15
106 0 20 -9 65 -20 99 -23 72 -23 70 -11 70 4 0 25 -27 45 -59 34 -56 36 -64
38 -153 0 -51 3 -77 5 -58 6 66 14 100 22 100 5 0 12 -15 16 -32 4 -18 9 -27
12 -20 10 25 -19 100 -49 129 -16 15 -44 54 -61 86 -17 31 -35 57 -39 57 -5 0
-8 5 -8 10 0 20 18 9 84 -55 38 -36 73 -64 80 -62 19 6 18 35 -1 52 -53 48
-89 75 -100 75 -7 0 -13 5 -13 11 0 5 -21 19 -47 31 -51 22 -153 102 -153 120
0 7 15 9 40 5 22 -3 40 -1 40 4 0 5 -10 10 -22 10 -16 1 -18 3 -6 6 30 8 30
33 0 35 -97 5 -112 4 -112 -9z m58 -30 c-10 -2 -18 -9 -18 -15 0 -6 -3 -9 -6
-5 -10 10 6 27 24 26 15 -1 15 -2 0 -6z m47 -95 c14 -6 25 -14 25 -18 0 -4 17
-27 38 -50 24 -28 38 -54 39 -74 3 -60 16 -141 38 -226 29 -120 29 -144 -4
-202 l-31 -53 0 37 c0 20 -5 40 -10 43 -6 4 -8 10 -6 14 6 8 -38 293 -56 364
-8 32 -15 43 -21 35 -5 -8 -6 -4 -2 10 4 13 2 28 -3 35 -11 15 -43 97 -37 97
2 0 16 -5 30 -12z m-136 -38 c0 -10 -3 -8 -9 5 -12 27 -12 43 0 25 5 -8 9 -22
9 -30z m28 -142 c-3 -7 -5 -2 -5 12 0 14 2 19 5 13 2 -7 2 -19 0 -25z m-195
-100 c-6 -6 -7 0 -4 19 5 21 7 23 10 9 2 -10 0 -22 -6 -28z m225 -100 c-3 -8
-6 -5 -6 6 -1 11 2 17 5 13 3 -3 4 -12 1 -19z m-180 -190 c-3 -7 -5 -2 -5 12
0 14 2 19 5 13 2 -7 2 -19 0 -25z m331 -118 c7 -49 8 -90 2 -120 -5 -25 -9
-73 -10 -107 0 -34 -4 -73 -10 -87 -9 -26 -34 -35 -44 -17 -14 22 -23 188 -14
260 10 80 43 171 56 155 5 -5 14 -43 20 -84z m9 58 c-3 -7 -5 -2 -5 12 0 14 2
19 5 13 2 -7 2 -19 0 -25z m-442 -236 c16 -26 32 -49 35 -52 14 -12 50 -79 50
-94 0 -30 -37 -16 -79 29 -52 57 -76 105 -67 139 9 38 27 32 61 -22z m571 -66
c-3 -22 -8 -71 -12 -109 -7 -71 -16 -86 -39 -67 -26 22 -12 160 16 160 5 0 9
13 9 28 0 32 8 44 22 36 6 -4 7 -25 4 -48z m-156 -227 c0 -19 -5 -29 -15 -29
-15 0 -22 50 -9 63 12 12 24 -4 24 -34z m910 -189 c0 -5 -2 -10 -4 -10 -3 0
-8 5 -11 10 -3 6 -1 10 4 10 6 0 11 -4 11 -10z m-808 -51 c9 -18 20 -52 24
-74 7 -37 6 -39 -10 -26 -25 21 -56 86 -56 116 0 36 21 28 42 -16z m-373 -260
l-23 -52 -17 22 c-22 27 -12 61 29 104 l27 29 3 -25 c2 -14 -7 -49 -19 -78z
m405 -171 c50 -149 46 -173 -11 -58 -45 95 -70 173 -73 240 -4 74 1 63 84
-182z m-218 214 c10 -7 34 -129 34 -169 -1 -14 -6 -11 -23 12 -23 30 -38 54
-58 93 -22 40 13 87 47 64z m-6 -156 c0 -3 -4 -8 -10 -11 -5 -3 -10 -1 -10 4
0 6 5 11 10 11 6 0 10 -2 10 -4z m44 -39 c4 4 4 0 0 -10 -9 -24 -19 -21 -33
10 -12 27 -12 27 6 10 11 -9 23 -14 27 -10z m-611 -178 l22 -21 -27 13 c-16 7
-28 16 -28 21 0 13 9 10 33 -13z m-56 -95 c-3 -3 -12 -4 -19 -1 -8 3 -5 6 6 6
11 1 17 -2 13 -5z m463 -58 c0 -2 -7 -6 -15 -10 -8 -3 -15 -1 -15 4 0 6 7 10
15 10 8 0 15 -2 15 -4z m203 -23 c-7 -2 -19 -2 -25 0 -7 3 -2 5 12 5 14 0 19
-2 13 -5z m-233 -13 c0 -5 -5 -10 -11 -10 -5 0 -7 5 -4 10 3 6 8 10 11 10 2 0
4 -4 4 -10z m284 -215 c-4 -8 -8 -15 -10 -15 -2 0 -4 7 -4 15 0 8 4 15 10 15
5 0 7 -7 4 -15z"/>
<path d="M14310 5515 c-5 -14 -10 -32 -10 -38 0 -12 92 -47 121 -47 8 0 31
-11 52 -25 l37 -26 0 28 c-1 31 -20 58 -67 91 -37 26 -43 27 -43 7 0 -24 -28
-17 -32 8 -5 34 -45 36 -58 2z"/>
<path d="M13692 5510 c0 -14 2 -19 5 -12 2 6 2 18 0 25 -3 6 -5 1 -5 -13z"/>
<path d="M14010 5515 c7 -9 15 -13 17 -11 7 7 -7 26 -19 26 -6 0 -6 -6 2 -15z"/>
<path d="M13915 5436 c5 -50 10 -64 21 -54 3 4 -1 28 -10 55 l-16 48 5 -49z"/>
<path d="M13702 5445 c0 -16 2 -22 5 -12 2 9 2 23 0 30 -3 6 -5 -1 -5 -18z"/>
<path d="M13268 5443 c7 -3 16 -2 19 1 4 3 -2 6 -13 5 -11 0 -14 -3 -6 -6z"/>
<path d="M13712 5385 c0 -16 2 -22 5 -12 2 9 2 23 0 30 -3 6 -5 -1 -5 -18z"/>
<path d="M4485 5390 c3 -5 8 -10 11 -10 2 0 4 5 4 10 0 6 -5 10 -11 10 -5 0
-7 -4 -4 -10z"/>
<path d="M11744 5375 c-5 -20 2 -32 41 -70 41 -39 53 -45 90 -45 26 0 45 -5
48 -12 2 -7 8 -10 12 -6 15 14 -15 35 -43 31 -20 -2 -22 -1 -9 5 16 7 13 12
-26 36 -25 16 -55 42 -67 58 -25 34 -38 36 -46 3z"/>
<path d="M9084 5320 c1 -38 4 -70 8 -70 12 0 21 68 14 105 -11 58 -22 40 -22
-35z"/>
<path d="M13361 5364 c0 -11 3 -14 6 -6 3 7 2 16 -1 19 -3 4 -6 -2 -5 -13z"/>
<path d="M8961 5346 c-16 -19 -11 -29 8 -17 7 5 12 14 9 21 -3 9 -8 7 -17 -4z"/>
<path d="M4405 5340 c3 -5 8 -10 11 -10 2 0 4 5 4 10 0 6 -5 10 -11 10 -5 0
-7 -4 -4 -10z"/>
<path d="M13715 5340 c3 -5 8 -10 11 -10 2 0 4 5 4 10 0 6 -5 10 -11 10 -5 0
-7 -4 -4 -10z"/>
<path d="M8995 5310 c4 -19 3 -30 -4 -30 -16 0 -13 -46 4 -60 12 -10 20 -9 40
4 31 21 31 34 0 70 -14 16 -25 33 -25 38 0 4 -5 8 -11 8 -7 0 -8 -11 -4 -30z"/>
<path d="M13060 5319 c0 -5 5 -7 10 -4 6 3 10 8 10 11 0 2 -4 4 -10 4 -5 0
-10 -5 -10 -11z"/>
<path d="M13695 5320 c3 -5 8 -10 11 -10 2 0 4 5 4 10 0 6 -5 10 -11 10 -5 0
-7 -4 -4 -10z"/>
<path d="M4407 5313 c-4 -3 -7 -11 -7 -17 0 -6 5 -5 12 2 6 6 9 14 7 17 -3 3
-9 2 -12 -2z"/>
<path d="M6075 5298 c8 -41 25 -81 32 -75 3 4 -1 21 -9 39 -9 18 -18 40 -22
48 -3 8 -4 3 -1 -12z"/>
<path d="M11355 5298 c-16 -6 -47 -16 -67 -23 -23 -8 -40 -10 -44 -4 -3 5 -17
0 -31 -11 -14 -11 -31 -20 -38 -20 -14 0 -84 -79 -104 -117 -7 -14 -18 -20
-31 -18 -26 5 -26 -11 0 -18 14 -4 20 -14 20 -34 1 -32 28 -136 30 -113 1 9 6
4 12 -10 10 -23 11 -24 17 -5 10 34 25 53 45 56 25 5 38 50 20 73 -7 10 -16
16 -21 13 -4 -2 -16 -1 -27 2 -15 6 -7 18 57 77 42 38 105 85 141 104 88 47
100 74 21 48z m-265 -207 c0 -6 -4 -13 -10 -16 -5 -3 -10 1 -10 9 0 9 5 16 10
16 6 0 10 -4 10 -9z"/>
<path d="M12020 5296 c0 -3 14 -14 30 -26 17 -12 30 -17 30 -11 0 6 -13 17
-30 26 -16 9 -30 13 -30 11z"/>
<path d="M11628 5265 c-6 -14 -18 -25 -25 -25 -8 0 -11 -4 -8 -10 9 -14 -8
-12 -24 3 -11 10 -13 9 -9 -3 2 -8 20 -20 39 -26 22 -8 35 -19 37 -33 3 -16
10 -21 33 -21 16 0 29 4 29 9 0 5 14 14 30 21 l31 13 -30 21 c-17 11 -31 29
-31 39 0 10 -12 22 -26 27 -34 13 -33 14 -46 -15z"/>
<path d="M11956 5244 c5 -21 4 -25 -6 -19 -8 5 23 -28 68 -73 45 -45 82 -84
82 -88 0 -3 -5 -14 -11 -25 -10 -20 -11 -20 -34 5 -13 14 -26 35 -30 46 -3 11
-11 20 -16 20 -5 0 -9 6 -9 13 0 14 -105 117 -120 117 -6 0 -10 -4 -10 -10 0
-5 5 -10 11 -10 13 0 73 -49 75 -61 1 -5 2 -10 4 -11 3 -4 11 -40 14 -62 1
-11 12 -23 22 -27 26 -9 52 -49 59 -89 5 -28 30 -77 46 -90 15 -12 31 -56 35
-92 6 -66 13 -70 61 -40 23 15 42 33 43 40 0 6 6 12 13 12 9 0 9 2 -1 9 -11 6
-10 10 4 15 16 6 16 8 4 16 -10 7 -11 10 -2 10 6 0 12 7 12 15 0 8 4 15 9 15
11 0 1 50 -13 68 -6 7 -27 32 -48 55 -20 23 -56 67 -80 97 -24 30 -54 59 -66
65 -12 5 -22 12 -22 16 0 3 -23 25 -50 48 -50 42 -51 42 -44 15z"/>
<path d="M13310 5256 c0 -2 7 -7 16 -10 8 -3 12 -2 9 4 -6 10 -25 14 -25 6z"/>
<path d="M2741 5199 c-12 -28 -20 -53 -18 -55 2 -3 14 18 26 47 12 28 20 53
18 55 -2 3 -14 -18 -26 -47z"/>
<path d="M11430 5243 c-8 -3 -34 -14 -57 -24 -23 -11 -48 -19 -56 -19 -19 0
-58 -37 -87 -85 -26 -43 -36 -107 -14 -98 8 3 11 -2 7 -15 -3 -11 -13 -22 -24
-25 -10 -3 -22 -13 -25 -24 -16 -45 -83 -94 -84 -60 0 6 -5 4 -11 -6 -6 -10
-8 -21 -5 -24 3 -4 6 0 6 8 0 8 6 3 13 -11 8 -15 20 -24 31 -22 20 4 71 -38
59 -47 -18 -13 -33 -53 -32 -83 0 -30 1 -31 9 -10 5 12 15 22 21 22 7 0 9 -8
4 -22 -18 -59 -18 -67 1 -64 11 2 20 12 22 22 3 19 39 50 48 41 6 -5 -28 -69
-41 -79 -6 -5 -6 -8 2 -8 6 0 14 -8 16 -17 3 -12 5 -9 6 8 1 20 22 46 77 97
59 55 77 78 79 101 2 34 21 61 41 61 8 0 14 3 14 8 0 4 18 18 40 32 22 14 40
28 40 32 0 18 -24 18 -56 -1 -20 -12 -40 -19 -45 -16 -5 4 -9 -1 -9 -9 0 -8
-10 -18 -22 -22 -11 -3 -40 -24 -62 -45 -23 -22 -48 -46 -57 -54 -24 -23 -42
-19 -33 8 14 46 75 114 92 103 6 -3 13 1 16 9 3 9 17 19 30 25 14 5 26 19 28
31 4 30 64 61 106 55 41 -6 43 12 2 21 -38 7 -34 24 7 35 28 7 61 34 52 42 -4
3 -146 -10 -179 -17 -8 -1 -45 -17 -82 -36 -67 -33 -108 -35 -108 -6 0 22 122
128 183 159 31 15 57 30 57 32 0 2 -1 4 -2 3 -2 0 -10 -3 -18 -6z"/>
<path d="M9281 5224 c0 -11 3 -14 6 -6 3 7 2 16 -1 19 -3 4 -6 -2 -5 -13z"/>
<path d="M13690 5232 c0 -4 9 -15 20 -25 14 -11 20 -13 20 -4 0 7 -9 18 -20
25 -11 7 -20 9 -20 4z"/>
<path d="M14910 5225 c0 -8 11 -17 25 -21 14 -3 25 -11 25 -17 0 -6 3 -8 6 -4
8 8 -28 56 -43 57 -7 0 -13 -7 -13 -15z"/>
<path d="M13492 5211 c4 -13 18 -16 19 -4 0 4 -5 9 -11 12 -7 2 -11 -2 -8 -8z"/>
<path d="M13530 5195 c0 -14 3 -25 8 -25 4 0 7 11 7 25 0 14 -3 25 -7 25 -5 0
-8 -11 -8 -25z"/>
<path d="M14980 5173 c0 -13 29 -38 35 -31 3 3 -4 13 -15 23 -11 10 -20 13
-20 8z"/>
<path d="M14839 5144 c-57 -60 -326 -318 -346 -331 -20 -14 -22 -43 -2 -43 9
0 49 35 153 132 33 32 64 58 69 58 4 0 7 6 7 14 0 8 4 16 8 18 4 2 21 20 37
41 15 21 31 34 34 30 6 -8 81 -16 81 -9 0 2 -6 16 -14 31 -13 24 -13 30 0 42
15 16 19 43 6 43 -5 0 -20 -12 -33 -26z"/>
<path d="M10995 5150 c-3 -5 -1 -10 4 -10 6 0 11 5 11 10 0 6 -2 10 -4 10 -3
0 -8 -4 -11 -10z"/>
<path d="M11611 5126 c-9 -10 -9 -16 -1 -21 7 -4 9 -19 5 -36 -5 -22 -3 -29 9
-29 15 0 22 18 28 70 3 29 -22 39 -41 16z"/>
<path d="M11003 5115 c-3 -9 -3 -19 1 -22 3 -4 6 1 6 10 0 8 6 18 13 20 9 4 9
6 -1 6 -7 1 -15 -6 -19 -14z"/>
<path d="M15042 5105 c12 -14 23 -23 25 -21 6 5 -29 46 -39 46 -4 0 2 -11 14
-25z"/>
<path d="M13301 5084 c0 -11 3 -14 6 -6 3 7 2 16 -1 19 -3 4 -6 -2 -5 -13z"/>
<path d="M11820 5084 c0 -14 64 -97 67 -87 4 12 -47 92 -59 93 -5 0 -8 -3 -8
-6z"/>
<path d="M11875 5070 c5 -14 19 -43 34 -65 14 -22 26 -44 26 -50 1 -5 9 -27
18 -47 9 -21 17 -45 17 -55 0 -26 17 -3 27 37 l9 35 27 -29 c31 -34 34 -27 10
25 -19 41 -43 59 -43 32 0 -13 -4 -11 -20 7 -11 13 -20 26 -20 30 0 4 -21 29
-46 56 -37 39 -44 44 -39 24z"/>
<path d="M13331 5075 c-1 -11 -4 -31 -6 -45 l-6 -25 11 25 c6 13 9 33 7 45 -4
19 -4 19 -6 0z"/>
<path d="M13722 5065 c0 -16 2 -22 5 -12 2 9 2 23 0 30 -3 6 -5 -1 -5 -18z"/>
<path d="M13533 5045 c0 -22 2 -30 4 -17 2 12 2 30 0 40 -3 9 -5 -1 -4 -23z"/>
<path d="M10990 4973 c4 -84 5 -90 9 -43 l5 55 6 -65 7 -65 1 74 c2 67 -13
141 -28 141 -3 0 -3 -44 0 -97z"/>
<path d="M8325 5030 c-3 -5 -1 -10 4 -10 6 0 11 5 11 10 0 6 -2 10 -4 10 -3 0
-8 -4 -11 -10z"/>
<path d="M11700 5003 c0 -11 -7 -27 -16 -34 -14 -11 -19 -9 -34 11 -12 16 -22
21 -28 15 -10 -12 -78 -197 -87 -240 -6 -27 -8 -28 -19 -13 -7 10 -16 15 -20
11 -4 -4 -11 -1 -15 6 -7 11 -12 8 -21 -10 -7 -13 -24 -35 -39 -49 -46 -42
-101 -130 -100 -159 2 -25 2 -25 6 -2 4 19 7 21 14 10 7 -12 9 -12 9 1 0 8 16
28 35 43 19 15 35 32 35 38 0 5 11 22 24 37 14 15 34 38 45 51 12 13 21 18 21
12 0 -15 40 -50 57 -51 28 0 41 -29 32 -67 -5 -21 -6 -64 -3 -95 l7 -57 19 37
c37 72 49 273 18 292 -11 7 -12 14 -2 34 7 16 8 26 2 26 -14 0 -12 23 3 43 14
19 77 33 77 17 0 -6 -4 -8 -10 -5 -20 12 -10 -49 12 -72 20 -21 22 -33 20
-126 -2 -114 -9 -174 -23 -183 -15 -9 -10 -24 6 -18 8 4 12 11 8 17 -4 7 0 8
11 4 12 -5 16 -3 13 5 -2 7 4 30 14 50 13 25 19 59 19 101 0 46 4 68 16 77 31
26 -12 153 -77 230 -25 30 -29 31 -29 13z"/>
<path d="M8828 4979 c-18 -24 -29 -30 -54 -27 -41 3 -84 -25 -66 -43 16 -18
15 -39 -3 -39 -19 0 -38 -36 -30 -60 8 -25 34 -15 28 11 -7 27 13 47 53 55 32
6 58 24 35 24 -6 0 -11 5 -11 10 0 6 7 10 15 10 9 0 29 16 46 35 17 19 38 35
48 35 14 0 14 2 1 10 -25 16 -38 12 -62 -21z"/>
<path d="M9888 4993 c-21 -8 -38 -19 -38 -23 0 -5 -28 -8 -63 -8 -71 2 -117
-20 -117 -56 0 -11 -7 -34 -15 -50 -13 -24 -13 -31 -3 -38 16 -10 108 -11 108
0 0 4 17 15 38 24 20 9 65 43 100 75 86 82 82 115 -10 76z"/>
<path d="M2632 4957 c-24 -49 -27 -61 -12 -52 13 8 42 75 37 88 -1 5 -13 -11
-25 -36z"/>
<path d="M9818 4973 c7 -3 16 -2 19 1 4 3 -2 6 -13 5 -11 0 -14 -3 -6 -6z"/>
<path d="M8645 4950 c-3 -5 0 -10 9 -10 8 0 21 -3 30 -6 11 -4 16 -1 16 10 0
18 -45 23 -55 6z"/>
<path d="M14461 4928 c-1 -20 4 -40 9 -43 12 -7 12 32 0 60 -7 16 -9 13 -9
-17z"/>
<path d="M8625 4920 c-3 -5 -1 -10 4 -10 6 0 11 5 11 10 0 6 -2 10 -4 10 -3 0
-8 -4 -11 -10z"/>
<path d="M11855 4921 c-3 -5 -1 -12 5 -16 6 -4 8 -10 5 -14 -2 -5 2 -17 10
-27 14 -18 14 -18 15 8 0 47 -19 74 -35 49z"/>
<path d="M10931 4894 c0 -11 3 -14 6 -6 3 7 2 16 -1 19 -3 4 -6 -2 -5 -13z"/>
<path d="M3816 4885 c-3 -8 -1 -15 4 -15 6 0 10 7 10 15 0 8 -2 15 -4 15 -2 0
-6 -7 -10 -15z"/>
<path d="M8300 4870 c0 -22 -8 -24 -43 -11 -13 5 -30 6 -37 1 -9 -6 -4 -13 19
-25 32 -16 37 -35 11 -43 -8 -3 -10 0 -5 8 5 8 4 11 -3 7 -13 -9 -3 -47 14
-54 8 -3 11 -9 8 -14 -3 -5 -10 -7 -15 -4 -5 4 -9 2 -9 -3 0 -6 -11 -13 -25
-16 -14 -4 -25 -11 -25 -16 0 -14 12 -13 55 6 21 8 47 13 57 10 13 -3 18 0 15
8 -3 8 5 19 19 26 27 15 34 46 8 36 -8 -3 -12 -2 -9 3 7 12 -17 101 -27 101
-4 0 -8 -9 -8 -20z"/>
<path d="M10918 4850 c-4 -14 -8 -36 -8 -50 1 -22 2 -23 11 -7 6 9 9 32 7 50
-3 31 -3 31 -10 7z"/>
<path d="M11071 4799 c0 -20 -4 -52 -7 -70 -4 -26 -3 -30 5 -19 10 13 12 13
22 0 9 -12 9 -11 3 5 -4 11 -10 43 -14 70 -6 44 -7 46 -9 14z"/>
<path d="M8507 4809 c-9 -6 -17 -14 -17 -19 0 -17 27 -11 34 6 8 22 5 25 -17
13z"/>
<path d="M11881 4779 c-6 -18 -3 -48 11 -105 l21 -80 36 5 c20 2 30 6 23 8
-10 4 -10 8 -2 18 17 20 -17 118 -51 151 l-28 27 -10 -24z"/>
<path d="M10975 4780 c-3 -5 -1 -10 4 -10 6 0 11 5 11 10 0 6 -2 10 -4 10 -3
0 -8 -4 -11 -10z"/>
<path d="M11100 4759 c0 -5 5 -7 10 -4 6 3 10 8 10 11 0 2 -4 4 -10 4 -5 0
-10 -5 -10 -11z"/>
<path d="M12073 4743 c-15 -31 -7 -53 21 -53 15 0 17 3 7 9 -7 5 -9 10 -4 12
6 3 6 14 -1 31 l-11 26 -12 -25z"/>
<path d="M10957 4735 c-4 -8 -3 -16 1 -19 4 -3 9 4 9 15 2 23 -3 25 -10 4z"/>
<path d="M10935 4686 c-3 -9 -7 -23 -10 -31 -2 -8 0 -15 5 -15 11 0 25 48 16
57 -3 3 -8 -2 -11 -11z"/>
<path d="M10266 4675 c-3 -9 -6 -22 -5 -28 0 -7 5 -1 10 12 5 13 8 26 5 28 -2
2 -6 -3 -10 -12z"/>
<path d="M11470 4657 c-20 -17 -90 -135 -90 -151 0 -1 9 -13 20 -26 18 -21 21
-21 42 -8 13 8 41 19 63 23 22 5 32 10 23 12 -14 4 -15 9 -8 29 7 17 7 23 0
19 -16 -10 -32 46 -25 87 4 21 5 38 3 38 -1 0 -14 -10 -28 -23z"/>
<path d="M10230 4620 c0 -11 2 -20 4 -20 2 0 6 9 9 20 3 11 1 20 -4 20 -5 0
-9 -9 -9 -20z"/>
<path d="M10904 4605 c-3 -13 -4 -29 -2 -36 6 -19 38 19 37 44 -1 19 -2 18
-15 -8 l-15 -30 6 28 c7 34 -2 36 -11 2z"/>
<path d="M11006 4604 c-3 -9 -6 -26 -6 -38 0 -12 -9 -39 -20 -60 -11 -22 -24
-69 -30 -105 -20 -131 -29 -174 -40 -185 -16 -16 -12 -29 6 -22 14 5 15 4 5
-8 -7 -8 -10 -20 -6 -26 3 -5 1 -10 -4 -10 -6 0 -11 -22 -11 -50 0 -46 -4 -55
-41 -93 -78 -80 -92 -103 -77 -126 7 -12 15 -21 18 -21 3 0 27 35 55 78 70
109 96 154 85 147 -32 -19 -26 34 12 125 6 14 14 34 19 45 4 11 17 54 29 95
12 41 25 84 30 95 5 11 14 45 20 75 6 30 13 66 16 78 3 15 1 21 -6 17 -5 -3
-10 -15 -10 -25 0 -10 -4 -21 -9 -24 -5 -4 -7 4 -4 16 5 23 5 23 -11 3 -16
-19 -16 -19 -10 8 7 29 0 37 -10 11z m23 -119 c0 -11 -14 -31 -31 -45 l-31
-24 6 32 c8 42 39 84 49 68 4 -6 8 -20 7 -31z m-52 -137 c-3 -8 -6 -5 -6 6 -1
11 2 17 5 13 3 -3 4 -12 1 -19z m-40 -130 c-3 -8 -6 -5 -6 6 -1 11 2 17 5 13
3 -3 4 -12 1 -19z"/>
<path d="M11153 4593 c-3 -10 -8 -21 -10 -25 -2 -5 0 -8 5 -8 5 0 12 11 14 25
6 29 0 33 -9 8z"/>
<path d="M12130 4546 c0 -2 7 -7 16 -10 8 -3 12 -2 9 4 -6 10 -25 14 -25 6z"/>
<path d="M11131 4501 c-15 -53 -13 -62 6 -23 11 23 18 29 24 21 4 -7 5 -18 2
-24 -4 -7 -2 -7 5 0 14 12 5 52 -13 58 -8 4 -17 -9 -24 -32z"/>
<path d="M12268 4533 c6 -2 18 -2 25 0 6 3 1 5 -13 5 -14 0 -19 -2 -12 -5z"/>
<path d="M10080 4519 c0 -5 5 -7 10 -4 6 3 10 8 10 11 0 2 -4 4 -10 4 -5 0
-10 -5 -10 -11z"/>
<path d="M10891 4514 c0 -11 3 -14 6 -6 3 7 2 16 -1 19 -3 4 -6 -2 -5 -13z"/>
<path d="M12100 4516 c0 -3 9 -10 20 -16 11 -6 20 -8 20 -6 0 3 -9 10 -20 16
-11 6 -20 8 -20 6z"/>
<path d="M12198 4508 c5 -5 16 -8 23 -6 8 3 3 7 -10 11 -17 4 -21 3 -13 -5z"/>
<path d="M9980 4500 c-12 -8 -12 -10 5 -11 17 -1 16 -2 -5 -9 -22 -7 -20 -8
13 -7 21 0 40 4 43 9 3 4 -4 8 -15 8 -10 0 -21 4 -23 10 -2 6 -8 6 -18 0z"/>
<path d="M10853 4487 c-12 -15 -34 -90 -28 -95 2 -2 7 7 11 22 3 14 10 26 15
26 4 0 3 -13 -2 -30 -6 -16 -18 -30 -26 -30 -8 0 -11 -4 -8 -10 12 -19 26 -10
41 25 8 20 12 47 8 63 -4 19 -3 23 4 13 5 -7 12 -9 15 -5 3 5 -1 14 -8 21 -10
10 -15 10 -22 0z"/>
<path d="M11311 4486 c-7 -8 -11 -25 -8 -38 4 -20 4 -20 6 5 1 32 21 37 22 5
1 -17 3 -18 6 -6 2 10 0 25 -5 33 -8 14 -10 15 -21 1z"/>
<path d="M11961 4484 c0 -11 3 -14 6 -6 3 7 2 16 -1 19 -3 4 -6 -2 -5 -13z"/>
<path d="M12095 4480 c-3 -5 -1 -10 4 -10 6 0 11 5 11 10 0 6 -2 10 -4 10 -3
0 -8 -4 -11 -10z"/>
<path d="M10045 4470 c-3 -5 -2 -10 4 -10 5 0 13 5 16 10 3 6 2 10 -4 10 -5 0
-13 -4 -16 -10z"/>
<path d="M11760 4470 c0 -5 4 -10 9 -10 6 0 13 5 16 10 3 6 -1 10 -9 10 -9 0
-16 -4 -16 -10z"/>
<path d="M12130 4476 c0 -2 7 -7 16 -10 8 -3 12 -2 9 4 -6 10 -25 14 -25 6z"/>
<path d="M12833 4463 c9 -2 25 -2 35 0 9 3 1 5 -18 5 -19 0 -27 -2 -17 -5z"/>
<path d="M9938 4453 c12 -2 32 -2 45 0 12 2 2 4 -23 4 -25 0 -35 -2 -22 -4z"/>
<path d="M11140 4434 c0 -8 5 -12 10 -9 6 3 10 10 10 16 0 5 -4 9 -10 9 -5 0
-10 -7 -10 -16z"/>
<path d="M11172 4430 c0 -14 2 -19 5 -12 2 6 2 18 0 25 -3 6 -5 1 -5 -13z"/>
<path d="M12205 4420 c11 -5 27 -9 35 -9 9 0 8 4 -5 9 -11 5 -27 9 -35 9 -9 0
-8 -4 5 -9z"/>
<path d="M11121 4408 c0 -9 -4 -25 -7 -35 -5 -17 -5 -17 6 0 6 10 9 25 7 35
-4 15 -5 15 -6 0z"/>
<path d="M11321 4404 c0 -11 3 -14 6 -6 3 7 2 16 -1 19 -3 4 -6 -2 -5 -13z"/>
<path d="M9595 4401 c-11 -4 18 -6 65 -4 116 6 131 11 35 11 -44 0 -89 -3
-100 -7z"/>
<path d="M12277 4404 c-4 -4 -7 -12 -7 -18 0 -6 5 -4 10 4 9 13 11 13 21 0 9
-12 10 -12 7 -1 -5 17 -21 25 -31 15z"/>
<path d="M10751 4384 c0 -11 3 -14 6 -6 3 7 2 16 -1 19 -3 4 -6 -2 -5 -13z"/>
<path d="M11151 4383 c7 -10 15 -20 16 -22 2 -2 3 5 3 17 0 14 -6 22 -16 22
-14 0 -15 -3 -3 -17z"/>
<path d="M11751 4373 c2 -28 2 -28 7 -3 4 23 5 24 13 5 7 -19 8 -19 8 3 1 13
-5 22 -14 22 -10 0 -15 -9 -14 -27z"/>
<path d="M11802 4380 c0 -14 2 -19 5 -12 2 6 2 18 0 25 -3 6 -5 1 -5 -13z"/>
<path d="M11301 4374 c0 -11 3 -14 6 -6 3 7 2 16 -1 19 -3 4 -6 -2 -5 -13z"/>
<path d="M11941 4374 c0 -11 3 -14 6 -6 3 7 2 16 -1 19 -3 4 -6 -2 -5 -13z"/>
<path d="M12365 4370 c3 -5 11 -10 16 -10 6 0 7 5 4 10 -3 6 -11 10 -16 10 -6
0 -7 -4 -4 -10z"/>
<path d="M11131 4354 c0 -11 3 -14 6 -6 3 7 2 16 -1 19 -3 4 -6 -2 -5 -13z"/>
<path d="M11991 4340 c-2 -52 -12 -80 -27 -80 -9 0 -14 12 -14 33 -1 40 -15
19 -23 -35 -4 -29 -3 -36 9 -31 9 3 14 -2 14 -16 0 -12 -4 -21 -10 -21 -20 0
-9 -27 15 -38 24 -11 25 -10 25 20 0 17 5 59 11 94 6 34 9 72 6 85 -3 18 -5
15 -6 -11z m-24 -162 c-2 -13 -4 -3 -4 22 0 25 2 35 4 23 2 -13 2 -33 0 -45z"/>
<path d="M12101 4354 c0 -11 3 -14 6 -6 3 7 2 16 -1 19 -3 4 -6 -2 -5 -13z"/>
<path d="M12271 4346 c7 -15 15 -23 17 -16 3 7 -3 19 -13 28 -15 16 -16 15 -4
-12z"/>
<path d="M11146 4324 l-7 -26 -19 23 c-20 22 -20 22 -18 -112 l2 -134 5 102
c3 56 10 105 14 110 5 4 6 -14 3 -42 -6 -45 -4 -42 14 24 12 40 19 75 17 78
-3 2 -8 -8 -11 -23z"/>
<path d="M12259 4312 c5 -9 7 -31 5 -47 -4 -25 -3 -26 5 -10 9 18 10 17 10 -7
1 -16 -4 -28 -11 -28 -6 0 -9 -2 -6 -5 12 -12 36 8 33 26 -7 37 -29 89 -37 89
-5 0 -4 -8 1 -18z"/>
<path d="M12403 4323 c15 -2 37 -2 50 0 12 2 0 4 -28 4 -27 0 -38 -2 -22 -4z"/>
<path d="M11311 4269 c-7 -27 -11 -52 -8 -55 3 -3 10 18 17 46 7 28 10 53 8
55 -2 3 -10 -18 -17 -46z"/>
<path d="M11582 4300 c0 -14 2 -19 5 -12 2 6 2 18 0 25 -3 6 -5 1 -5 -13z"/>
<path d="M11962 4300 c0 -14 2 -19 5 -12 2 6 2 18 0 25 -3 6 -5 1 -5 -13z"/>
<path d="M10788 4298 c-9 -7 -28 -33 -42 -58 -24 -41 -25 -42 -4 -17 31 35 41
34 33 -3 -9 -40 15 -40 38 0 16 26 16 29 2 24 -14 -6 -14 -3 -4 20 15 32 1 53
-23 34z"/>
<path d="M11552 4285 c0 -16 2 -22 5 -12 2 9 2 23 0 30 -3 6 -5 -1 -5 -18z"/>
<path d="M12435 4296 c22 -10 41 -12 65 -6 l35 8 -35 1 c-19 0 -48 2 -65 6
l-30 5 30 -14z"/>
<path d="M15050 4292 c0 -14 37 -58 44 -51 2 2 -7 18 -20 34 -13 17 -24 24
-24 17z"/>
<path d="M11731 4274 c0 -11 3 -14 6 -6 3 7 2 16 -1 19 -3 4 -6 -2 -5 -13z"/>
<path d="M12114 4267 c-2 -7 0 -24 6 -38 9 -21 9 -20 4 10 -4 23 -3 31 5 27 6
-4 11 -2 11 3 0 16 -20 14 -26 -2z"/>
<path d="M11761 4254 c0 -11 3 -14 6 -6 3 7 2 16 -1 19 -3 4 -6 -2 -5 -13z"/>
<path d="M11781 4255 c1 -19 18 -51 18 -35 0 8 -4 22 -9 30 -5 8 -9 11 -9 5z"/>
<path d="M11281 4234 c0 -11 3 -14 6 -6 3 7 2 16 -1 19 -3 4 -6 -2 -5 -13z"/>
<path d="M12876 4235 c10 -8 24 -14 29 -14 6 0 1 6 -9 14 -11 8 -24 15 -30 15
-5 0 -1 -7 10 -15z"/>
<path d="M11571 4214 c0 -11 3 -14 6 -6 3 7 2 16 -1 19 -3 4 -6 -2 -5 -13z"/>
<path d="M12860 4210 c8 -5 20 -10 25 -10 6 0 3 5 -5 10 -8 5 -19 10 -25 10
-5 0 -3 -5 5 -10z"/>
<path d="M11715 4190 c-4 -12 -5 -24 -2 -27 3 -2 8 5 12 17 4 12 5 24 2 27 -3
2 -8 -5 -12 -17z"/>
<path d="M12912 4201 c-11 -6 -9 -9 6 -13 15 -4 19 -2 15 8 -6 16 -4 16 -21 5z"/>
<path d="M15122 4189 c1 -12 10 -24 18 -26 12 -4 13 -3 1 5 -7 5 -11 14 -7 20
3 6 1 14 -5 17 -7 5 -9 -1 -7 -16z"/>
<path d="M11292 4180 c0 -14 2 -19 5 -12 2 6 2 18 0 25 -3 6 -5 1 -5 -13z"/>
<path d="M12450 4177 c15 -15 33 -22 44 -19 19 5 19 6 -1 13 -12 4 -24 12 -28
18 -3 6 -14 11 -23 11 -13 0 -12 -5 8 -23z"/>
<path d="M11911 4174 c0 -11 3 -14 6 -6 3 7 2 16 -1 19 -3 4 -6 -2 -5 -13z"/>
<path d="M10855 4160 c-3 -6 1 -7 9 -4 18 7 21 14 7 14 -6 0 -13 -4 -16 -10z"/>
<path d="M5167 4153 c-10 -9 -9 -23 2 -23 5 0 11 7 15 15 5 15 -5 20 -17 8z"/>
<path d="M9378 4143 c12 -2 30 -2 40 0 9 3 -1 5 -23 4 -22 0 -30 -2 -17 -4z"/>
<path d="M15200 4132 c0 -12 49 -56 55 -50 3 2 -8 17 -25 31 -16 15 -30 23
-30 19z"/>
<path d="M9740 4111 c0 -4 19 -24 42 -42 23 -19 52 -45 66 -58 15 -15 27 -20
33 -14 15 15 2 35 -38 63 -92 64 -103 69 -103 51z"/>
<path d="M10686 4076 c-28 -47 -32 -66 -16 -66 6 0 10 4 10 10 0 5 14 25 30
43 33 38 38 57 16 57 -8 0 -26 -20 -40 -44z"/>
<path d="M10760 4053 c-60 -76 -60 -76 -45 -96 13 -18 15 -17 30 15 10 18 35
57 56 86 32 42 36 52 22 52 -10 0 -38 -25 -63 -57z"/>
<path d="M12555 4090 c-3 -6 1 -7 9 -4 18 7 21 14 7 14 -6 0 -13 -4 -16 -10z"/>
<path d="M12624 4079 c-3 -6 -1 -16 4 -21 8 -8 11 -5 9 11 -1 24 -3 25 -13 10z"/>
<path d="M10400 4072 c0 -5 9 -17 20 -27 18 -16 20 -16 20 -2 0 9 -9 21 -20
27 -11 6 -20 7 -20 2z"/>
<path d="M10471 4071 c-12 -8 -12 -11 0 -23 30 -28 72 -49 100 -50 16 -1 29
-6 29 -12 0 -6 10 -1 21 11 28 28 19 49 -25 57 -20 4 -36 11 -36 16 0 12 -70
13 -89 1z"/>
<path d="M12591 4056 c7 -15 15 -23 17 -16 3 7 -3 19 -13 28 -15 16 -16 15 -4
-12z"/>
<path d="M14840 4071 c0 -5 -3 -17 -7 -27 -9 -23 13 -10 27 17 9 15 7 19 -5
19 -8 0 -15 -4 -15 -9z"/>
<path d="M12686 4015 c-19 -15 -19 -16 2 -58 18 -37 72 -97 86 -97 5 0 50 -36
87 -71 17 -16 30 -22 33 -15 2 6 5 4 5 -5 1 -13 41 -61 41 -48 -1 14 -60 119
-67 117 -4 -1 -23 18 -42 43 -18 24 -54 68 -80 96 -43 49 -47 51 -65 38z m44
-69 c0 -3 -4 -8 -10 -11 -5 -3 -10 -1 -10 4 0 6 5 11 10 11 6 0 10 -2 10 -4z
m20 -26 c0 -5 -4 -10 -10 -10 -5 0 -10 5 -10 10 0 6 5 10 10 10 6 0 10 -4 10
-10z m70 -55 c7 -9 8 -15 2 -15 -5 0 -12 7 -16 15 -3 8 -4 15 -2 15 2 0 9 -7
16 -15z"/>
<path d="M10952 3886 c-51 -51 -92 -99 -92 -107 0 -8 8 -23 16 -34 16 -20 16
-20 27 -1 7 10 27 39 45 63 18 24 40 58 50 76 10 17 26 45 36 60 37 55 8 35
-82 -57z"/>
<path d="M13422 3888 c6 -16 15 -28 20 -28 4 0 8 -8 8 -17 0 -10 8 -28 18 -40
13 -17 19 -19 28 -9 9 9 8 17 -4 32 -14 18 -14 18 -9 -6 6 -24 5 -24 -8 -6 -8
10 -12 22 -10 26 2 4 -9 22 -25 41 -28 32 -29 32 -18 7z"/>
<path d="M13597 3891 c3 -11 11 -21 19 -21 7 0 12 -8 12 -17 -2 -20 78 -161
117 -208 21 -25 25 -27 31 -12 5 14 9 15 20 6 19 -15 18 1 -2 29 -8 12 -20 19
-26 16 -7 -4 -8 -2 -4 4 7 12 -92 149 -142 196 -27 25 -30 26 -25 7z m67 -67
c6 -10 22 -35 36 -54 14 -19 31 -46 38 -59 l13 -25 -22 20 c-11 10 -28 32 -36
49 -9 16 -19 32 -22 35 -17 13 -42 62 -30 58 7 -2 17 -13 23 -24z m115 -154
c0 -3 -4 -13 -8 -23 -6 -17 -8 -17 -18 5 -9 20 -8 24 8 24 11 0 19 -3 18 -6z"/>
<path d="M12878 3863 c49 -61 109 -116 120 -109 6 3 13 2 17 -4 3 -5 1 -10 -5
-10 -6 0 -8 -4 -5 -10 9 -15 22 -12 29 6 7 19 -74 104 -135 142 -51 31 -55 28
-21 -15z m76 -49 c3 -9 -7 -3 -24 13 -16 15 -30 29 -30 31 0 8 49 -32 54 -44z
m46 -40 c0 -8 -4 -12 -10 -9 -5 3 -10 10 -10 16 0 5 5 9 10 9 6 0 10 -7 10
-16z"/>
<path d="M3948 3873 c-27 -32 -29 -41 -8 -36 10 3 22 14 26 25 8 27 0 32 -18
11z"/>
<path d="M10560 3860 c0 -5 5 -10 10 -10 6 0 10 5 10 10 0 6 -4 10 -10 10 -5
0 -10 -4 -10 -10z"/>
<path d="M13140 3824 c1 -12 39 -61 40 -51 0 5 -9 20 -20 34 -11 14 -20 22
-20 17z"/>
<path d="M13300 3825 c0 -3 9 -14 21 -26 11 -11 18 -27 15 -35 -3 -9 1 -28 9
-45 9 -16 15 -31 15 -35 -1 -3 8 -14 19 -23 12 -10 21 -23 21 -30 0 -6 5 -11
11 -11 6 0 8 7 5 16 -3 9 -6 20 -6 25 0 5 -6 9 -13 9 -16 0 -54 77 -44 87 4 3
7 1 7 -5 0 -7 9 -21 20 -32 11 -11 43 -56 71 -100 29 -44 54 -78 57 -75 3 3
-11 29 -31 58 -21 30 -37 57 -37 60 0 4 -8 15 -17 25 -26 27 -77 93 -82 106
-8 21 -41 46 -41 31z"/>
<path d="M13300 3791 c0 -5 5 -13 10 -16 6 -3 10 -2 10 4 0 5 -4 13 -10 16 -5
3 -10 2 -10 -4z"/>
<path d="M13525 3770 c10 -11 20 -20 23 -20 3 0 -3 9 -13 20 -10 11 -20 20
-23 20 -3 0 3 -9 13 -20z"/>
<path d="M13183 3762 c-8 -5 -8 -12 1 -24 7 -10 16 -15 20 -11 3 4 5 -3 4 -14
-3 -20 101 -178 110 -168 3 2 -3 16 -12 30 -9 14 -12 25 -7 25 5 0 15 -16 22
-35 7 -19 19 -35 26 -35 7 0 13 -5 13 -11 0 -6 -7 -8 -16 -5 -14 6 -14 3 1
-21 18 -27 54 -62 65 -63 3 0 6 9 7 21 1 14 -3 19 -12 15 -8 -3 -14 -2 -14 2
4 22 -3 34 -15 29 -9 -4 -12 0 -9 12 2 10 -3 23 -11 30 -9 8 -16 20 -16 27 0
8 -9 23 -19 33 -11 11 -25 29 -31 41 -6 12 -14 19 -18 16 -3 -4 0 -12 6 -18
15 -15 16 -28 2 -28 -5 0 -10 6 -10 13 0 8 -9 22 -20 32 -11 10 -20 23 -20 29
0 6 5 5 12 -2 41 -41 5 26 -46 85 -1 1 -7 -1 -13 -5z m47 -62 c0 -5 -4 -10
-10 -10 -5 0 -10 5 -10 10 0 6 5 10 10 10 6 0 10 -4 10 -10z"/>
<path d="M13502 3745 c6 -14 13 -24 14 -22 6 6 -9 47 -17 47 -5 0 -3 -11 3
-25z"/>
<path d="M13036 3725 c-9 -24 -8 -26 11 -23 12 2 18 -4 18 -17 0 -22 26 -28
33 -7 2 6 -1 12 -8 12 -6 0 -8 -5 -4 -12 4 -7 3 -8 -4 -4 -6 4 -9 12 -6 19 2
7 -4 21 -14 31 -18 15 -20 15 -26 1z"/>
<path d="M13566 3716 c10 -16 19 -35 20 -42 1 -7 12 -23 24 -36 12 -13 28 -36
37 -51 8 -16 17 -26 20 -23 3 3 -9 26 -26 52 -17 26 -31 53 -31 59 0 6 -14 24
-31 41 l-32 29 19 -29z"/>
<path d="M13538 3719 c7 -9 10 -23 7 -30 -2 -8 9 -30 25 -49 36 -42 39 -37 6
9 -14 18 -22 39 -20 45 3 7 -3 19 -13 27 -16 13 -17 12 -5 -2z"/>
<path d="M14920 3682 c0 -5 7 -15 15 -22 8 -7 15 -9 15 -6 0 4 -7 14 -15 22
-8 9 -15 11 -15 6z"/>
<path d="M13103 3656 c-10 -11 -9 -17 4 -28 15 -11 16 -11 10 7 -6 16 -3 15
12 -5 11 -13 17 -28 14 -33 -6 -9 58 -83 69 -79 4 1 8 -4 8 -10 0 -7 19 -26
43 -42 l42 -29 -32 34 c-18 19 -33 39 -33 43 0 9 -36 54 -97 123 -23 27 -30
30 -40 19z"/>
<path d="M14971 3628 c8 -7 41 -48 73 -90 49 -66 62 -77 82 -73 13 3 35 7 49
10 55 12 18 50 -73 74 -24 7 -46 19 -49 27 -3 7 -10 14 -17 14 -6 0 -22 12
-35 25 -13 14 -28 25 -34 25 -6 0 -4 -6 4 -12z"/>
<path d="M13780 3614 c0 -17 50 -92 91 -137 l26 -29 1 30 c0 17 -6 36 -14 43
-8 6 -14 15 -14 20 0 5 -11 26 -24 47 -24 39 -66 55 -66 26z m70 -66 c0 -6 -7
-5 -15 2 -8 7 -15 17 -15 22 0 6 7 5 15 -2 8 -7 15 -17 15 -22z m15 -28 c-3
-5 -2 -10 3 -10 6 0 13 -8 16 -17 6 -15 4 -15 -14 2 -22 20 -26 35 -9 35 5 0
7 -4 4 -10z"/>
<path d="M13607 3604 c-5 -5 5 -20 38 -58 6 -6 16 -23 24 -39 10 -19 17 -24
22 -15 6 9 14 7 31 -7 23 -20 23 -20 6 0 -9 11 -24 34 -33 50 l-17 30 6 -30 7
-30 -21 25 c-12 14 -29 37 -39 52 -10 16 -20 25 -24 22z"/>
<path d="M13450 3570 c12 -16 24 -30 26 -30 3 0 -3 14 -13 30 -9 17 -21 30
-26 30 -5 0 1 -13 13 -30z"/>
<path d="M13497 3503 c19 -29 27 -30 12 -1 -10 18 -9 20 5 15 9 -4 16 -2 16 3
0 5 -11 9 -24 8 -22 -2 -23 -3 -9 -25z"/>
<path d="M13700 3470 c0 -5 5 -10 11 -10 5 0 7 5 4 10 -3 6 -8 10 -11 10 -2 0
-4 -4 -4 -10z"/>
<path d="M13906 3457 c-6 -23 34 -67 105 -117 19 -13 37 -29 41 -34 4 -6 10
-7 14 -3 12 12 -31 62 -53 63 -26 1 -43 12 -43 26 0 6 9 3 20 -7 11 -10 20
-14 20 -9 0 6 -22 31 -49 56 -46 43 -49 45 -55 25z m54 -46 c0 -11 -6 -9 -20
7 -11 12 -20 24 -20 27 0 3 9 0 20 -7 11 -7 20 -19 20 -27z"/>
<path d="M13732 3451 c-10 -6 -9 -11 4 -22 16 -12 17 -12 11 4 -4 11 -3 16 3
12 6 -3 10 -14 10 -24 0 -19 19 -41 35 -41 5 0 1 7 -9 15 -11 8 -17 17 -14 21
4 3 26 -12 49 -33 l43 -38 -43 52 c-24 28 -50 54 -58 57 -18 7 -15 7 -31 -3z"/>
<path d="M14391 3144 c0 -11 3 -14 6 -6 3 7 2 16 -1 19 -3 4 -6 -2 -5 -13z"/>
<path d="M107 3143 c-12 -11 -8 -23 8 -23 8 0 15 7 15 15 0 16 -12 20 -23 8z"/>
<path d="M41 3121 c-9 -6 -10 -11 -2 -15 6 -4 18 0 27 8 12 12 12 16 2 16 -7
0 -19 -4 -27 -9z"/>
<path d="M14400 3091 c0 -6 4 -13 10 -16 6 -3 7 1 4 9 -7 18 -14 21 -14 7z"/>
<path d="M14398 3017 c-3 -19 -2 -25 4 -19 6 6 8 18 6 28 -3 14 -5 12 -10 -9z"/>
<path d="M15560 3007 c-1 -23 76 -120 109 -136 20 -11 73 -57 117 -104 68 -71
85 -85 104 -80 22 6 22 7 5 20 -11 7 -13 13 -7 13 23 0 12 38 -15 56 -16 10
-32 19 -36 19 -4 0 -11 5 -15 12 -4 6 -21 15 -37 19 -34 8 -67 33 -60 44 3 4
-6 11 -20 14 -14 4 -25 12 -25 20 0 7 -8 20 -17 27 -11 10 -14 10 -9 2 4 -7 3
-13 -3 -13 -5 0 -13 9 -16 20 -3 11 -11 20 -16 20 -6 0 -21 12 -34 28 -13 15
-25 23 -25 19z"/>
<path d="M14360 2938 c0 -28 16 -39 41 -29 24 10 24 10 2 10 -14 1 -23 7 -23
16 0 8 -4 15 -10 15 -5 0 -10 -6 -10 -12z"/>
<path d="M14298 2869 c-31 -11 -74 -36 -94 -55 -38 -34 -37 -46 1 -20 11 7 37
16 57 19 24 4 51 18 74 41 42 41 40 42 -38 15z"/>
<path d="M14466 2797 c2 -7 -7 -26 -21 -41 -19 -20 -23 -32 -16 -39 15 -15 14
-27 -1 -27 -7 -1 -26 -7 -43 -16 l-30 -14 30 5 c41 8 85 26 85 36 0 4 -10 11
-22 15 -21 6 -21 7 5 22 19 12 27 25 27 44 0 16 -4 28 -10 28 -5 0 -7 -6 -4
-13z"/>
<path d="M15915 2640 c3 -5 8 -10 11 -10 2 0 4 5 4 10 0 6 -5 10 -11 10 -5 0
-7 -4 -4 -10z"/>
<path d="M15940 2623 c0 -14 52 -65 58 -58 3 3 -9 19 -26 36 -18 17 -32 27
-32 22z"/>
<path d="M11491 1122 c0 -13 -6 -32 -11 -43 -7 -13 -7 -19 -1 -19 13 0 24 42
18 67 -4 14 -5 13 -6 -5z"/>
<path d="M11453 1023 c-3 -10 -8 -22 -10 -28 -3 -5 3 -1 11 9 16 20 21 36 11
36 -3 0 -8 -8 -12 -17z"/>
<path d="M9374 875 c8 -8 24 -15 37 -15 18 0 19 2 9 15 -7 8 -23 15 -37 15
-22 0 -23 -2 -9 -15z"/>
<path d="M681 781 c-17 -13 -35 -17 -66 -13 -42 4 -105 -18 -105 -38 0 -6 -36
-10 -84 -10 -66 0 -88 4 -101 17 -20 20 -132 24 -253 9 l-72 -9 0 -368 0 -369
2361 0 c1466 0 2358 4 2354 9 -3 6 -35 10 -72 10 -36 0 -94 3 -127 6 -35 4
-73 2 -88 -4 -25 -10 -28 -8 -28 12 0 13 9 26 22 32 28 13 34 33 12 42 -10 4
-22 0 -29 -10 -8 -11 -26 -17 -49 -17 -24 0 -36 -5 -36 -14 0 -17 -192 -16
-198 2 -2 7 -21 12 -42 12 -25 0 -40 5 -44 15 -3 9 -20 21 -37 27 -25 8 -29
15 -25 33 3 12 -1 30 -9 41 -8 10 -15 34 -15 51 0 40 -36 68 -77 60 -16 -3
-52 -11 -82 -16 -30 -6 -59 -15 -64 -20 -5 -5 -9 -43 -9 -84 1 -85 -14 -121
-42 -98 -20 17 -37 77 -45 166 -6 65 -8 70 -28 68 -15 -2 -21 2 -17 11 6 15
-31 46 -53 46 -16 0 -17 -52 -1 -68 9 -9 9 -15 0 -24 -7 -7 -12 -20 -12 -30 0
-10 -5 -18 -11 -18 -6 0 -25 -11 -43 -25 -33 -25 -106 -36 -106 -15 0 6 -8 10
-17 10 -9 0 -24 6 -32 14 -9 7 -36 24 -61 37 -25 13 -48 28 -51 32 -3 4 -10 7
-15 6 -24 -5 -103 26 -107 43 -3 10 -18 21 -34 24 -36 7 -77 40 -68 55 9 14
-14 59 -30 59 -7 0 -18 7 -25 15 -15 18 -120 21 -138 3 -17 -17 -15 -65 3 -72
8 -3 15 -14 15 -25 0 -23 -35 -31 -107 -24 l-53 6 0 -32 c0 -30 -2 -31 -40
-31 l-40 0 0 40 c0 43 -12 50 -41 24 -17 -15 -22 -15 -69 2 -27 10 -50 22 -50
26 0 4 -9 8 -20 8 -10 0 -29 4 -42 10 -13 5 -42 14 -64 20 -23 5 -54 20 -70
33 -29 22 -113 45 -171 46 -29 1 -33 -2 -33 -24 0 -16 -14 -39 -36 -62 l-37
-37 -23 28 c-15 17 -24 40 -24 61 0 18 -3 40 -6 49 -7 19 -30 21 -37 4 -4 -10
-7 -10 -18 -1 -11 11 -10 13 4 13 9 0 17 5 17 11 0 8 -19 10 -66 5 -70 -7
-174 9 -174 27 0 5 -21 8 -50 5 -41 -4 -56 -1 -80 17 -16 12 -48 30 -70 40
-22 10 -40 22 -40 27 0 4 -11 8 -25 8 -33 0 -75 20 -75 37 0 7 -7 13 -15 13
-8 0 -15 -5 -15 -11 0 -20 21 -49 35 -49 8 0 15 -5 15 -11 0 -5 14 -28 31 -49
18 -22 29 -45 26 -54 -4 -9 1 -17 11 -20 9 -3 -10 -4 -44 -2 -61 4 -115 28
-159 73 -13 13 -20 14 -23 5 -6 -20 -97 -15 -134 8 -18 11 -40 20 -49 20 -9 0
-24 9 -34 20 -10 11 -23 20 -28 20 -5 0 -20 10 -32 23 -41 40 -55 48 -90 54
-19 3 -35 10 -35 14 0 14 -13 10 -39 -10z"/>
<path d="M9275 780 c4 -7 -2 -9 -19 -4 -41 10 -73 -3 -84 -35 -6 -16 -28 -43
-50 -60 l-40 -32 27 -27 c47 -48 68 -54 186 -51 86 2 120 -2 155 -16 55 -21
171 -25 194 -6 9 8 26 11 40 7 21 -5 24 -2 28 29 5 41 -10 46 -49 15 -26 -20
-30 -20 -194 -4 -60 6 -72 11 -102 40 -33 34 -39 44 -71 117 -10 20 -19 37
-22 37 -3 0 -2 -5 1 -10z"/>
<path d="M9610 770 c0 -5 5 -10 10 -10 6 0 10 5 10 10 0 6 -4 10 -10 10 -5 0
-10 -4 -10 -10z"/>
<path d="M1280 730 c0 -5 5 -10 11 -10 5 0 7 5 4 10 -3 6 -8 10 -11 10 -2 0
-4 -4 -4 -10z"/>
<path d="M9443 733 c-80 -3 -93 -6 -93 -21 1 -18 29 -74 30 -58 0 6 7 1 15
-10 9 -11 13 -13 10 -4 -4 11 3 15 27 16 75 2 104 9 126 33 15 17 19 27 11 32
-8 5 -7 8 2 12 8 3 3 5 -11 4 -14 -1 -67 -3 -117 -4z"/>
<path d="M1980 550 c0 -5 5 -10 10 -10 6 0 10 5 10 10 0 6 -4 10 -10 10 -5 0
-10 -4 -10 -10z"/>
<path d="M10948 500 c-7 -24 -3 -38 8 -28 3 4 4 17 2 30 l-3 23 -7 -25z"/>
<path d="M2555 479 c-4 -6 -5 -12 -2 -15 2 -3 7 2 10 11 7 17 1 20 -8 4z"/>
<path d="M2587 433 c-20 -20 -4 -33 39 -33 42 0 45 2 33 16 -8 10 -15 12 -17
5 -2 -7 -11 -5 -26 4 -12 8 -26 12 -29 8z"/>
<path d="M10830 430 c0 -5 9 -10 21 -10 11 0 17 5 14 10 -3 6 -13 10 -21 10
-8 0 -14 -4 -14 -10z"/>
<path d="M13266 414 c-17 -12 -17 -14 -4 -14 9 0 20 5 23 11 11 17 2 18 -19 3z"/>
<path d="M10793 403 c7 -6 -16 -22 -58 -42 -22 -9 -43 -30 -44 -43 -1 -5 -4
-7 -7 -5 -14 6 -25 -34 -14 -49 10 -11 10 -17 0 -29 -11 -13 -10 -14 4 -9 9 3
16 11 16 18 0 19 50 66 70 66 11 0 20 6 20 14 0 8 11 17 24 20 14 3 34 20 46
36 l21 30 -42 0 c-23 0 -39 -3 -36 -7z"/>
<path d="M13213 389 c-6 -6 -9 -19 -6 -28 4 -12 3 -13 -5 -2 -11 15 -39 4 -62
-23 -7 -9 -19 -16 -27 -16 -7 0 -26 -11 -41 -26 -15 -14 -61 -46 -102 -72 -41
-25 -79 -52 -85 -58 -5 -6 -22 -14 -37 -18 -15 -3 -33 -13 -42 -21 -8 -8 -25
-19 -38 -25 -13 -5 -32 -16 -43 -22 -11 -7 -42 -26 -69 -43 l-49 -30 73 -3
c79 -3 114 8 165 53 17 14 48 35 70 45 46 23 102 67 194 151 35 33 67 59 71
59 4 0 24 16 44 35 26 24 32 35 21 35 -9 0 -13 5 -10 10 8 14 -8 13 -22 -1z"/>
<path d="M5460 306 c0 -2 7 -7 16 -10 8 -3 12 -2 9 4 -6 10 -25 14 -25 6z"/>
<path d="M14176 292 c-3 -5 -27 -19 -53 -33 -26 -13 -50 -27 -53 -30 -3 -3
-39 -25 -80 -48 -41 -24 -82 -48 -90 -56 -8 -7 -42 -27 -75 -45 -33 -18 -76
-44 -95 -57 l-35 -23 90 0 c90 0 90 0 140 40 28 22 55 40 61 40 6 0 18 7 25
17 8 9 28 24 44 35 17 10 23 18 15 18 -8 0 0 10 18 21 17 12 32 24 32 27 0 7
38 55 66 85 10 9 12 17 6 17 -6 0 -13 -4 -16 -8z"/>
<path d="M10628 273 c18 -7 15 -23 -6 -23 -9 0 -23 -9 -30 -20 -7 -11 -17 -20
-23 -20 -6 0 -25 -11 -43 -25 -18 -14 -36 -25 -40 -25 -4 0 -34 -28 -69 -62
-34 -35 -73 -71 -87 -80 -25 -18 -25 -18 42 -18 l67 0 54 55 c30 30 60 55 67
55 7 0 10 7 6 17 -5 11 4 26 24 45 17 15 35 28 39 28 5 0 14 14 21 31 11 26
11 32 -1 40 -8 5 -18 8 -24 8 -5 0 -4 -3 3 -6z"/>
<path d="M15771 139 c-13 -5 -39 -23 -58 -39 -19 -17 -50 -33 -73 -36 -22 -4
-40 -10 -40 -13 0 -4 -17 -16 -37 -27 l-38 -19 90 -3 c49 -2 99 2 110 7 11 6
29 12 40 14 11 2 19 8 18 14 -2 7 6 15 18 18 18 6 69 54 69 65 0 7 -51 30 -64
29 -6 0 -22 -5 -35 -10z"/>
<path d="M12305 102 c-11 -3 -31 -13 -44 -23 -13 -11 -30 -19 -39 -19 -13 0
-62 -44 -62 -56 0 -3 29 -4 64 -3 46 1 63 5 60 14 -3 7 8 23 24 37 32 26 30
56 -3 50z"/>
<path d="M5287 94 c-3 -3 2 -14 11 -24 12 -14 19 -17 29 -8 21 17 15 38 -10
38 -13 0 -26 -3 -30 -6z"/>
<path d="M4997 60 c3 -11 7 -20 9 -20 2 0 4 9 4 20 0 11 -4 20 -9 20 -5 0 -7
-9 -4 -20z"/>
<path d="M11275 55 c-6 -10 -36 -20 -79 -26 -94 -13 -118 -28 -46 -29 36 0 69
7 95 20 23 12 48 17 62 14 27 -7 30 3 6 22 -23 17 -26 17 -38 -1z"/>
<path d="M11345 60 c-3 -5 -1 -10 4 -10 6 0 11 5 11 10 0 6 -2 10 -4 10 -3 0
-8 -4 -11 -10z"/>
<path d="M5335 10 c-3 -5 3 -10 14 -10 12 0 21 5 21 10 0 6 -6 10 -14 10 -8 0
-18 -4 -21 -10z"/>
<path d="M15265 10 c-4 -6 13 -10 44 -10 28 0 51 5 51 10 0 6 -20 10 -44 10
-25 0 -48 -4 -51 -10z"/>
<path d="M6288 3 c7 -3 16 -2 19 1 4 3 -2 6 -13 5 -11 0 -14 -3 -6 -6z"/>
<path d="M13498 3 c7 -3 16 -2 19 1 4 3 -2 6 -13 5 -11 0 -14 -3 -6 -6z"/>
</g>
</svg>
