<svg width="512" height="512" xmlns="http://www.w3.org/2000/svg" xml:space="preserve" version="1.1">

 <g>
  <title>Layer 1</title>
  <path id="svg_1" fill="#186365" d="m464.866,0.026c-34.849,0 -63.2,28.351 -63.2,63.2l0,80.317c0,75.258 -57.367,137.369 -130.668,144.901l0,-258.444l9.101,0c8.284,0 15,-6.716 15,-15s-6.716,-15 -15,-15l-48.201,0c-8.284,0 -15,6.716 -15,15s6.716,15 15,15l9.101,0l0,258.445c-73.3,-7.533 -130.665,-69.643 -130.665,-144.901l0,-80.317c0,-34.849 -28.352,-63.2 -63.201,-63.2c-8.284,0 -15,6.716 -15,15s6.716,15 15,15c18.308,0 33.201,14.893 33.201,33.2l0,80.317c0,91.811 70.799,167.386 160.665,175.023l0,163.433l-33.198,0c-8.284,0 -15,6.716 -15,15s6.716,15 15,15l96.4,0c8.284,0 15,-6.716 15,-15s-6.716,-15 -15,-15l-33.202,0l0,-163.434c89.867,-7.637 160.668,-83.211 160.668,-175.023l0,-80.316c0,-18.307 14.894,-33.2 33.2,-33.2c8.284,0 15,-6.716 15,-15c-0.001,-8.285 -6.717,-15.001 -15.001,-15.001z"/>
  <path id="svg_2" fill="#0e5053" d="m464.866,0.026c-34.849,0 -63.2,28.351 -63.2,63.2l0,80.317c0,75.258 -57.367,137.369 -130.668,144.901l0,-258.444l9.101,0c8.284,0 15,-6.716 15,-15s-6.716,-15 -15,-15l-24.1,0l0,512l48.201,0c8.284,0 15,-6.716 15,-15s-6.716,-15 -15,-15l-33.202,0l0,-163.434c89.867,-7.637 160.668,-83.211 160.668,-175.023l0,-80.316c0,-18.307 14.894,-33.2 33.2,-33.2c8.284,0 15,-6.716 15,-15c0,-8.285 -6.716,-15.001 -15,-15.001z"/>
  <g id="svg_3"/>
  <g id="svg_4"/>
  <g id="svg_5"/>
  <g id="svg_6"/>
  <g id="svg_7"/>
  <g id="svg_8"/>
  <g id="svg_9"/>
  <g id="svg_10"/>
  <g id="svg_11"/>
  <g id="svg_12"/>
  <g id="svg_13"/>
  <g id="svg_14"/>
  <g id="svg_15"/>
  <g id="svg_16"/>
  <g id="svg_17"/>
 </g>
</svg>